<svg id="Calque_1" data-name="Calque 1" xmlns="http://www.w3.org/2000/svg" xmlns:xlink="http://www.w3.org/1999/xlink" viewBox="0 0 249.71 167.12"><defs><style>.cls-1{fill:none;}.cls-2{fill:#e10929;}.cls-3{fill:#054d9d;}.cls-4{clip-path:url(#clip-path);}.cls-5{fill:#ff0024;}.cls-6{fill:#181812;}</style><clipPath id="clip-path" transform="translate(0.03 0.05)"><rect class="cls-1" x="82.98" y="5.43" width="84.43" height="72.4"/></clipPath></defs><title>Carte de visite_Support technique</title><path class="cls-2" d="M92.29,89.59a.4.4,0,0,1-.11.14.29.29,0,0,1-.16,0,.37.37,0,0,1-.2-.07l-.26-.16a3,3,0,0,0-.36-.15,1.45,1.45,0,0,0-.49-.07,1.4,1.4,0,0,0-.43.06,1,1,0,0,0-.32.17.61.61,0,0,0-.19.26.88.88,0,0,0-.06.33.6.6,0,0,0,.12.38,1.14,1.14,0,0,0,.34.26,2.78,2.78,0,0,0,.49.19l.55.19c.18.06.37.14.55.22a2,2,0,0,1,.48.33,1.62,1.62,0,0,1,.34.47,1.77,1.77,0,0,1,.13.69,2.27,2.27,0,0,1-.15.83,1.91,1.91,0,0,1-.44.67,2.15,2.15,0,0,1-.71.45,2.61,2.61,0,0,1-1,.16,3.08,3.08,0,0,1-.61-.06,2.61,2.61,0,0,1-.58-.17,2.84,2.84,0,0,1-.52-.27,2.44,2.44,0,0,1-.43-.35l.35-.58a.43.43,0,0,1,.12-.11.29.29,0,0,1,.16,0,.45.45,0,0,1,.24.09l.31.21a2.75,2.75,0,0,0,.42.2,1.62,1.62,0,0,0,.57.09,1.22,1.22,0,0,0,.81-.24.91.91,0,0,0,.28-.71.59.59,0,0,0-.13-.41,1.19,1.19,0,0,0-.34-.28,2.67,2.67,0,0,0-.48-.18L90.07,92a3.71,3.71,0,0,1-.55-.22,1.75,1.75,0,0,1-.48-.32A1.69,1.69,0,0,1,88.7,91a1.83,1.83,0,0,1-.13-.75,1.76,1.76,0,0,1,.56-1.29,2.13,2.13,0,0,1,.67-.42,2.49,2.49,0,0,1,.9-.16,3,3,0,0,1,1.06.18,2.32,2.32,0,0,1,.83.51Z" transform="translate(0.03 0.05)"/><path class="cls-2" d="M94.59,90.3v2.93a1,1,0,0,0,.19.65.72.72,0,0,0,.59.24,1.26,1.26,0,0,0,.54-.13,2,2,0,0,0,.48-.36V90.3H97.5v4.61h-.68a.27.27,0,0,1-.28-.2l-.08-.37a2.43,2.43,0,0,1-.3.26,2.2,2.2,0,0,1-.32.21,2.12,2.12,0,0,1-.38.13A1.91,1.91,0,0,1,95,95a1.69,1.69,0,0,1-.66-.12,1.3,1.3,0,0,1-.49-.37,1.62,1.62,0,0,1-.3-.55,2.3,2.3,0,0,1-.1-.71V90.3Z" transform="translate(0.03 0.05)"/><path class="cls-2" d="M98.69,96.42V90.3h.68a.34.34,0,0,1,.18,0,.25.25,0,0,1,.1.16l.09.42a2.4,2.4,0,0,1,.64-.51,1.78,1.78,0,0,1,.85-.2,1.53,1.53,0,0,1,1.23.61,2.21,2.21,0,0,1,.35.74,3.81,3.81,0,0,1,.13,1,3.32,3.32,0,0,1-.14,1,2.49,2.49,0,0,1-.4.76,1.73,1.73,0,0,1-.63.51A1.83,1.83,0,0,1,101,95a1.54,1.54,0,0,1-1.15-.45v1.89Zm2.16-5.33a1.2,1.2,0,0,0-.59.14,1.76,1.76,0,0,0-.46.41v2.08a1,1,0,0,0,.41.32,1.28,1.28,0,0,0,.48.09,1.14,1.14,0,0,0,.46-.09.85.85,0,0,0,.34-.29,1.3,1.3,0,0,0,.22-.49,3.21,3.21,0,0,0,0-1.38,1.3,1.3,0,0,0-.18-.46.72.72,0,0,0-.3-.25A.83.83,0,0,0,100.85,91.09Z" transform="translate(0.03 0.05)"/><path class="cls-2" d="M103.78,96.42V90.3h.68a.34.34,0,0,1,.18,0,.29.29,0,0,1,.1.16l.09.42a2.4,2.4,0,0,1,.64-.51,1.78,1.78,0,0,1,.85-.2,1.53,1.53,0,0,1,1.23.61,2.21,2.21,0,0,1,.35.74,3.83,3.83,0,0,1,.12,1,3.32,3.32,0,0,1-.13,1,2.49,2.49,0,0,1-.4.76A1.79,1.79,0,0,1,106,95a1.54,1.54,0,0,1-1.15-.45v1.89Zm2.16-5.33a1.27,1.27,0,0,0-.6.14,1.9,1.9,0,0,0-.45.41v2.08a1,1,0,0,0,.41.32,1.28,1.28,0,0,0,.48.09,1.14,1.14,0,0,0,.46-.09.85.85,0,0,0,.34-.29,1.3,1.3,0,0,0,.22-.49,3.21,3.21,0,0,0,0-1.38,1.3,1.3,0,0,0-.18-.46.79.79,0,0,0-.3-.25A.85.85,0,0,0,105.94,91.09Z" transform="translate(0.03 0.05)"/><path class="cls-2" d="M110.84,90.22a2.58,2.58,0,0,1,.94.17,2,2,0,0,1,.71.47,2.11,2.11,0,0,1,.46.75,3.11,3.11,0,0,1,0,2,2.15,2.15,0,0,1-.46.76,2,2,0,0,1-.71.47,2.58,2.58,0,0,1-.94.17,2.54,2.54,0,0,1-.94-.17,2.13,2.13,0,0,1-.73-.47,2.31,2.31,0,0,1-.46-.76,3.11,3.11,0,0,1,0-2,2.26,2.26,0,0,1,.46-.75,2.13,2.13,0,0,1,.73-.47A2.54,2.54,0,0,1,110.84,90.22Zm0,3.9a1,1,0,0,0,.85-.38,2.44,2.44,0,0,0,0-2.27,1,1,0,0,0-.85-.4,1,1,0,0,0-.87.4,2.44,2.44,0,0,0,0,2.27A1,1,0,0,0,110.84,94.12Z" transform="translate(0.03 0.05)"/><path class="cls-2" d="M114,94.91V90.3h.66a.33.33,0,0,1,.23.06.29.29,0,0,1,.09.21l.07.56a2.27,2.27,0,0,1,.58-.67,1.19,1.19,0,0,1,.75-.25.94.94,0,0,1,.57.16l-.15.83a.17.17,0,0,1-.06.11.16.16,0,0,1-.12,0l-.18,0a1.3,1.3,0,0,0-.31,0,1,1,0,0,0-.6.19,1.49,1.49,0,0,0-.42.56v2.87Z" transform="translate(0.03 0.05)"/><path class="cls-2" d="M119.18,95a1.22,1.22,0,0,1-.93-.34,1.31,1.31,0,0,1-.32-.93V91.13h-.47a.2.2,0,0,1-.15-.06.21.21,0,0,1-.07-.18v-.44l.74-.12.24-1.26a.25.25,0,0,1,.08-.14.28.28,0,0,1,.16-.05H119v1.46h1.22v.79H119v2.5a.51.51,0,0,0,.11.34.37.37,0,0,0,.29.12.43.43,0,0,0,.17,0,.33.33,0,0,0,.12,0l.09-.05a.19.19,0,0,1,.17,0l.06.07.34.54a1.71,1.71,0,0,1-.56.31A2.05,2.05,0,0,1,119.18,95Z" transform="translate(0.03 0.05)"/><path class="cls-2" d="M124.4,95a1.22,1.22,0,0,1-.93-.34,1.31,1.31,0,0,1-.32-.93V91.13h-.47a.2.2,0,0,1-.15-.06.21.21,0,0,1-.07-.18v-.44l.74-.12.24-1.26a.25.25,0,0,1,.08-.14.28.28,0,0,1,.16-.05h.58v1.46h1.22v.79h-1.22v2.5a.51.51,0,0,0,.11.34.37.37,0,0,0,.29.12.43.43,0,0,0,.17,0,.33.33,0,0,0,.12,0L125,94a.15.15,0,0,1,.09,0,.12.12,0,0,1,.08,0l.06.07.34.54a1.71,1.71,0,0,1-.56.31A2.05,2.05,0,0,1,124.4,95Z" transform="translate(0.03 0.05)"/><path class="cls-2" d="M128.27,90.22a2.28,2.28,0,0,1,.8.14,1.85,1.85,0,0,1,.64.41,2,2,0,0,1,.41.66,2.44,2.44,0,0,1,.15.89c0,.08,0,.15,0,.2a.47.47,0,0,1,0,.14.16.16,0,0,1-.08.06.27.27,0,0,1-.13,0h-2.85a1.61,1.61,0,0,0,.38,1.05,1.2,1.2,0,0,0,.88.33,1.63,1.63,0,0,0,.47-.06l.34-.14.26-.14a.42.42,0,0,1,.21-.06.22.22,0,0,1,.12,0l.08.08.33.4a1.83,1.83,0,0,1-.42.37,2.65,2.65,0,0,1-.48.23,2.15,2.15,0,0,1-.5.12,3,3,0,0,1-.51,0,2.38,2.38,0,0,1-.89-.16,2,2,0,0,1-.72-.47,2.06,2.06,0,0,1-.48-.78,2.89,2.89,0,0,1-.18-1.07,2.33,2.33,0,0,1,.16-.88,2.14,2.14,0,0,1,.43-.73,2.2,2.2,0,0,1,.7-.49A2.3,2.3,0,0,1,128.27,90.22Zm0,.8a1,1,0,0,0-.76.27,1.41,1.41,0,0,0-.35.78h2.09a1.29,1.29,0,0,0-.06-.4,1,1,0,0,0-.18-.34.81.81,0,0,0-.31-.23A1.1,1.1,0,0,0,128.29,91Z" transform="translate(0.03 0.05)"/><path class="cls-2" d="M134.42,91.27l-.1.1a.26.26,0,0,1-.14,0,.27.27,0,0,1-.16-.06l-.2-.11a1.14,1.14,0,0,0-.27-.12,1.35,1.35,0,0,0-.38-.05,1.13,1.13,0,0,0-.51.1,1.12,1.12,0,0,0-.37.31,1.33,1.33,0,0,0-.22.48,2.48,2.48,0,0,0-.07.63,2.59,2.59,0,0,0,.08.66,1.48,1.48,0,0,0,.23.49.91.91,0,0,0,.36.29,1,1,0,0,0,.47.1,1.27,1.27,0,0,0,.43-.06,1.46,1.46,0,0,0,.28-.15l.19-.14a.33.33,0,0,1,.19-.06.21.21,0,0,1,.2.1l.32.4a1.74,1.74,0,0,1-.4.37,2.64,2.64,0,0,1-.44.23,2.11,2.11,0,0,1-.48.12,2.77,2.77,0,0,1-.49,0,2,2,0,0,1-.81-.16,1.9,1.9,0,0,1-.66-.47,2.13,2.13,0,0,1-.44-.75,2.85,2.85,0,0,1-.17-1,2.89,2.89,0,0,1,.15-.94,2.13,2.13,0,0,1,.43-.75,2,2,0,0,1,.7-.5,2.42,2.42,0,0,1,1-.18,2.31,2.31,0,0,1,.91.17,2.19,2.19,0,0,1,.7.48Z" transform="translate(0.03 0.05)"/><path class="cls-2" d="M135.46,94.91V88.22h1.12v2.57a2.6,2.6,0,0,1,.59-.41,1.81,1.81,0,0,1,.76-.16,1.74,1.74,0,0,1,.67.13,1.39,1.39,0,0,1,.49.36,1.72,1.72,0,0,1,.3.55,2.71,2.71,0,0,1,.1.71v2.94h-1.11V92a1,1,0,0,0-.2-.65.71.71,0,0,0-.59-.23,1.13,1.13,0,0,0-.54.13,1.85,1.85,0,0,0-.47.35v3.34Z" transform="translate(0.03 0.05)"/><path class="cls-2" d="M140.58,94.91V90.3h.68a.26.26,0,0,1,.28.2l.08.36a2.55,2.55,0,0,1,.3-.26,2.14,2.14,0,0,1,.32-.2,1.55,1.55,0,0,1,.38-.13,1.88,1.88,0,0,1,.43,0,1.78,1.78,0,0,1,.67.13,1.48,1.48,0,0,1,.49.36,1.53,1.53,0,0,1,.29.55,2.34,2.34,0,0,1,.1.71v2.94h-1.11V92a1,1,0,0,0-.19-.65.71.71,0,0,0-.59-.23,1.13,1.13,0,0,0-.54.13,1.73,1.73,0,0,0-.48.35v3.34Z" transform="translate(0.03 0.05)"/><path class="cls-2" d="M147.05,89a.6.6,0,0,1-.06.27.69.69,0,0,1-.16.22.86.86,0,0,1-.22.15.67.67,0,0,1-.28.06.6.6,0,0,1-.27-.06.91.91,0,0,1-.23-.15.86.86,0,0,1-.15-.22.76.76,0,0,1-.05-.27.87.87,0,0,1,.05-.28.71.71,0,0,1,.15-.22.57.57,0,0,1,.23-.15.6.6,0,0,1,.27-.06.67.67,0,0,1,.28.06.54.54,0,0,1,.22.15.6.6,0,0,1,.16.22A.67.67,0,0,1,147.05,89Zm-.17,1.35v4.61h-1.11V90.3Z" transform="translate(0.03 0.05)"/><path class="cls-2" d="M152.07,90.3v6.12H151V94.33a2.44,2.44,0,0,1-.29.27,1.38,1.38,0,0,1-.33.2,1.63,1.63,0,0,1-.37.13,2,2,0,0,1-.43,0,1.5,1.5,0,0,1-.7-.16,1.55,1.55,0,0,1-.54-.45,2.21,2.21,0,0,1-.35-.74,3.89,3.89,0,0,1-.12-1,3,3,0,0,1,.14-1,2.12,2.12,0,0,1,.4-.76,1.79,1.79,0,0,1,.62-.51,1.86,1.86,0,0,1,.82-.18,1.64,1.64,0,0,1,.4,0,1.21,1.21,0,0,1,.32.11,1.1,1.1,0,0,1,.28.17,1.65,1.65,0,0,1,.24.22l.06-.25a.29.29,0,0,1,.1-.16.36.36,0,0,1,.19,0Zm-2.16,3.8a1.13,1.13,0,0,0,.59-.15,1.55,1.55,0,0,0,.45-.41V91.47a1,1,0,0,0-.41-.32,1.28,1.28,0,0,0-.48-.09,1.06,1.06,0,0,0-.45.09.82.82,0,0,0-.35.29,1.42,1.42,0,0,0-.22.48,2.87,2.87,0,0,0-.08.7,3.16,3.16,0,0,0,.07.68,1.3,1.3,0,0,0,.19.46.71.71,0,0,0,.29.26A1,1,0,0,0,149.91,94.1Z" transform="translate(0.03 0.05)"/><path class="cls-2" d="M154.28,90.3v2.93a1,1,0,0,0,.2.65.72.72,0,0,0,.59.24,1.26,1.26,0,0,0,.54-.13,2.18,2.18,0,0,0,.47-.36V90.3h1.12v4.61h-.68a.28.28,0,0,1-.29-.2l-.07-.37a3.48,3.48,0,0,1-.3.26,1.85,1.85,0,0,1-.33.21,2,2,0,0,1-.37.13,2,2,0,0,1-.43,0,1.74,1.74,0,0,1-.67-.12,1.48,1.48,0,0,1-.49-.37,1.62,1.62,0,0,1-.3-.55,2.65,2.65,0,0,1-.1-.71V90.3Z" transform="translate(0.03 0.05)"/><path class="cls-2" d="M160.29,90.22a2.28,2.28,0,0,1,.8.14,1.85,1.85,0,0,1,.64.41,2,2,0,0,1,.41.66,2.44,2.44,0,0,1,.15.89,1.15,1.15,0,0,1,0,.2.47.47,0,0,1,0,.14.16.16,0,0,1-.08.06.25.25,0,0,1-.13,0h-2.85a1.61,1.61,0,0,0,.38,1.05,1.2,1.2,0,0,0,.88.33,1.63,1.63,0,0,0,.47-.06l.34-.14.26-.14a.42.42,0,0,1,.21-.06.22.22,0,0,1,.12,0,.3.3,0,0,1,.08.08l.33.4a1.64,1.64,0,0,1-.42.37,2.92,2.92,0,0,1-.47.23,2.36,2.36,0,0,1-.51.12,3,3,0,0,1-.51,0,2.38,2.38,0,0,1-.89-.16,2,2,0,0,1-.72-.47,2.34,2.34,0,0,1-.48-.78,2.89,2.89,0,0,1-.18-1.07,2.33,2.33,0,0,1,.16-.88,2.14,2.14,0,0,1,.43-.73,2.2,2.2,0,0,1,.7-.49A2.34,2.34,0,0,1,160.29,90.22Zm0,.8a1.05,1.05,0,0,0-.76.27,1.41,1.41,0,0,0-.35.78h2.09a1.29,1.29,0,0,0-.06-.4,1,1,0,0,0-.18-.34.86.86,0,0,0-.3-.23A1.19,1.19,0,0,0,160.31,91Z" transform="translate(0.03 0.05)"/><path d="M103.44,103.08a4.83,4.83,0,0,1-.16,1.29,2.91,2.91,0,0,1-.44.9,1.73,1.73,0,0,1-.65.53,1.9,1.9,0,0,1-.79.17,1.85,1.85,0,0,1-.78-.17,1.81,1.81,0,0,1-.65-.53,2.69,2.69,0,0,1-.43-.9,5.28,5.28,0,0,1,0-2.58,2.69,2.69,0,0,1,.43-.9,1.81,1.81,0,0,1,.65-.53,1.85,1.85,0,0,1,.78-.17,1.9,1.9,0,0,1,.79.17,1.73,1.73,0,0,1,.65.53,2.91,2.91,0,0,1,.44.9A4.83,4.83,0,0,1,103.44,103.08Zm-.4,0a4.49,4.49,0,0,0-.14-1.18,2.22,2.22,0,0,0-.35-.79,1.41,1.41,0,0,0-.52-.46,1.52,1.52,0,0,0-.63-.14,1.48,1.48,0,0,0-.62.14,1.41,1.41,0,0,0-.52.46,2.41,2.41,0,0,0-.36.79,5.42,5.42,0,0,0,0,2.36,2.41,2.41,0,0,0,.36.79,1.41,1.41,0,0,0,.52.46,1.48,1.48,0,0,0,.62.14,1.52,1.52,0,0,0,.63-.14,1.41,1.41,0,0,0,.52-.46,2.22,2.22,0,0,0,.35-.79A4.49,4.49,0,0,0,103,103.08Z" transform="translate(0.03 0.05)"/><path d="M105,105.62h1.3V101c0-.09,0-.18,0-.28l-1.24,1.1a.13.13,0,0,1-.1,0,.1.1,0,0,1-.1,0l-.12-.16,1.64-1.44h.29v5.39h1.24v.29H105Z" transform="translate(0.03 0.05)"/><path d="M113.77,100.42a.17.17,0,0,1,0,.13.22.22,0,0,1-.17,0h-2l-.34,1.89c.18,0,.35-.08.51-.1l.46,0a2.36,2.36,0,0,1,.78.13,1.52,1.52,0,0,1,.56.35,1.5,1.5,0,0,1,.34.54,1.87,1.87,0,0,1,.12.68,1.84,1.84,0,0,1-.16.8,1.63,1.63,0,0,1-.42.6,1.73,1.73,0,0,1-.62.38,2.1,2.1,0,0,1-1.21.09,1.82,1.82,0,0,1-.4-.11,1.77,1.77,0,0,1-.34-.16,1.52,1.52,0,0,1-.28-.19l.12-.15a.11.11,0,0,1,.11-.06.29.29,0,0,1,.15.06l.25.13a2.64,2.64,0,0,0,.37.13,1.77,1.77,0,0,0,.49.06,1.74,1.74,0,0,0,.61-.11,1.44,1.44,0,0,0,.49-.3,1.45,1.45,0,0,0,.33-.5,1.83,1.83,0,0,0,0-1.22,1.16,1.16,0,0,0-.27-.44,1.19,1.19,0,0,0-.46-.28,1.9,1.9,0,0,0-.66-.11,4.23,4.23,0,0,0-.48,0,2.94,2.94,0,0,0-.54.12l-.25-.08.44-2.51h2.54Z" transform="translate(0.03 0.05)"/><path d="M116.87,106a2.45,2.45,0,0,1-.74-.11,1.84,1.84,0,0,1-.59-.31,1.42,1.42,0,0,1-.37-.5,1.47,1.47,0,0,1-.14-.64,1.6,1.6,0,0,1,.09-.56,1.29,1.29,0,0,1,.26-.42,1.26,1.26,0,0,1,.38-.3,2.13,2.13,0,0,1,.5-.18,2,2,0,0,1-.44-.2,1.3,1.3,0,0,1-.32-.3,1.25,1.25,0,0,1-.2-.38,1.63,1.63,0,0,1-.06-.45,1.3,1.3,0,0,1,.11-.56,1.23,1.23,0,0,1,.32-.46,1.79,1.79,0,0,1,.52-.31,2.16,2.16,0,0,1,1.36,0,1.79,1.79,0,0,1,.52.31,1.23,1.23,0,0,1,.32.46,1.31,1.31,0,0,1,.12.56,1.63,1.63,0,0,1-.07.45,1.25,1.25,0,0,1-.2.38,1.3,1.3,0,0,1-.32.3,1.86,1.86,0,0,1-.45.2,1.85,1.85,0,0,1,.5.18,1.45,1.45,0,0,1,.39.3,1.29,1.29,0,0,1,.26.42,1.6,1.6,0,0,1,.09.56,1.47,1.47,0,0,1-.13.64,1.58,1.58,0,0,1-.38.5,1.79,1.79,0,0,1-.58.31A2.56,2.56,0,0,1,116.87,106Zm0-.31a1.83,1.83,0,0,0,.59-.09,1.36,1.36,0,0,0,.46-.25,1,1,0,0,0,.29-.4,1.27,1.27,0,0,0,.11-.52,1.29,1.29,0,0,0-.14-.62,1,1,0,0,0-.35-.39,1.28,1.28,0,0,0-.46-.21,1.77,1.77,0,0,0-.5-.07,1.71,1.71,0,0,0-.49.07,1.26,1.26,0,0,0-.47.21,1.11,1.11,0,0,0-.35.39,1.29,1.29,0,0,0-.14.62,1.27,1.27,0,0,0,.11.52,1.14,1.14,0,0,0,.29.4,1.36,1.36,0,0,0,.46.25A1.87,1.87,0,0,0,116.87,105.67Zm0-2.85a1.56,1.56,0,0,0,.56-.1,1.28,1.28,0,0,0,.4-.27,1.1,1.1,0,0,0,.23-.37,1.39,1.39,0,0,0,0-.9,1,1,0,0,0-.25-.36,1.14,1.14,0,0,0-.39-.25,1.66,1.66,0,0,0-1.08,0,1,1,0,0,0-.39.25,1,1,0,0,0-.25.36,1.14,1.14,0,0,0-.08.46,1.35,1.35,0,0,0,.07.44,1.1,1.1,0,0,0,.23.37,1.23,1.23,0,0,0,.39.27A1.61,1.61,0,0,0,116.87,102.82Z" transform="translate(0.03 0.05)"/><path d="M124.17,104h1v.21a.09.09,0,0,1,0,.07.1.1,0,0,1-.08,0h-.93v1.62h-.34v-1.62h-2.67a.12.12,0,0,1-.09,0,.12.12,0,0,1,0-.07l0-.19,2.84-3.76h.34Zm-.34-3v-.14a.88.88,0,0,1,0-.16L121.4,104h2.43Z" transform="translate(0.03 0.05)"/><path d="M128.81,104h1v.21a.09.09,0,0,1,0,.07.1.1,0,0,1-.08,0h-.93v1.62h-.34v-1.62H125.8a.12.12,0,0,1-.09,0,.12.12,0,0,1,0-.07l0-.19,2.84-3.76h.34Zm-.34-3v-.14a.88.88,0,0,1,0-.16L126,104h2.43Z" transform="translate(0.03 0.05)"/><path d="M134,100.19a2,2,0,0,1,.61.09,1.4,1.4,0,0,1,.52.29,1.31,1.31,0,0,1,.36.47,1.57,1.57,0,0,1,.13.67,1.72,1.72,0,0,1-.1.6,2.3,2.3,0,0,1-.26.52,6,6,0,0,1-.39.49l-.47.49-1.77,1.81a1.09,1.09,0,0,1,.26-.05l.28,0h2.45a.13.13,0,0,1,.1,0,.18.18,0,0,1,0,.1v.22h-3.66v-.13a.16.16,0,0,1,0-.09.22.22,0,0,1,.05-.08l1.93-2,.45-.47a3.73,3.73,0,0,0,.35-.46,2.16,2.16,0,0,0,.24-.48,1.72,1.72,0,0,0,.08-.52,1.33,1.33,0,0,0-.1-.54,1.08,1.08,0,0,0-.28-.38,1.29,1.29,0,0,0-.4-.22,1.84,1.84,0,0,0-.47-.07,1.59,1.59,0,0,0-.5.08,1.44,1.44,0,0,0-.4.23,1.64,1.64,0,0,0-.29.35,1.52,1.52,0,0,0-.15.44c0,.1-.08.14-.16.14h0l-.2,0a2.07,2.07,0,0,1,.2-.65,1.65,1.65,0,0,1,.38-.48,1.62,1.62,0,0,1,.53-.3A1.93,1.93,0,0,1,134,100.19Z" transform="translate(0.03 0.05)"/><path d="M140.55,103.08a4.83,4.83,0,0,1-.16,1.29,2.91,2.91,0,0,1-.44.9,1.73,1.73,0,0,1-.65.53,1.9,1.9,0,0,1-.79.17,1.85,1.85,0,0,1-.78-.17,1.81,1.81,0,0,1-.65-.53,2.69,2.69,0,0,1-.43-.9,5.28,5.28,0,0,1,0-2.58,2.69,2.69,0,0,1,.43-.9,1.81,1.81,0,0,1,.65-.53,1.85,1.85,0,0,1,.78-.17,1.9,1.9,0,0,1,.79.17,1.73,1.73,0,0,1,.65.53,2.91,2.91,0,0,1,.44.9A4.83,4.83,0,0,1,140.55,103.08Zm-.4,0a4.49,4.49,0,0,0-.14-1.18,2.22,2.22,0,0,0-.35-.79,1.41,1.41,0,0,0-.52-.46,1.47,1.47,0,0,0-1.25,0,1.41,1.41,0,0,0-.52.46,2.41,2.41,0,0,0-.36.79,5.42,5.42,0,0,0,0,2.36,2.41,2.41,0,0,0,.36.79,1.41,1.41,0,0,0,.52.46,1.47,1.47,0,0,0,1.25,0,1.41,1.41,0,0,0,.52-.46,2.22,2.22,0,0,0,.35-.79A4.49,4.49,0,0,0,140.15,103.08Z" transform="translate(0.03 0.05)"/><path d="M144.79,100.19a2.11,2.11,0,0,1,.62.09,1.48,1.48,0,0,1,.52.29,1.29,1.29,0,0,1,.35.47,1.57,1.57,0,0,1,.13.67,2,2,0,0,1-.09.6,2.86,2.86,0,0,1-.27.52,3.49,3.49,0,0,1-.39.49l-.47.49-1.77,1.81a1.28,1.28,0,0,1,.27-.05l.28,0h2.44a.12.12,0,0,1,.1,0,.13.13,0,0,1,0,.1v.22H142.9v-.13a.29.29,0,0,1,0-.09.22.22,0,0,1,.05-.08l1.94-2c.16-.16.3-.32.44-.47a3,3,0,0,0,.35-.46,2.16,2.16,0,0,0,.24-.48,1.46,1.46,0,0,0,.09-.52,1.33,1.33,0,0,0-.11-.54,1.08,1.08,0,0,0-.28-.38,1.29,1.29,0,0,0-.4-.22,1.78,1.78,0,0,0-.47-.07,1.53,1.53,0,0,0-.49.08,1.31,1.31,0,0,0-.4.23,1.21,1.21,0,0,0-.29.35,1.29,1.29,0,0,0-.16.44c0,.1-.08.14-.16.14h0l-.19,0a1.84,1.84,0,0,1,.2-.65,1.62,1.62,0,0,1,.37-.48,1.73,1.73,0,0,1,.53-.3A2,2,0,0,1,144.79,100.19Z" transform="translate(0.03 0.05)"/><path d="M149.31,103.5a1.69,1.69,0,0,1-.64-.11,1.54,1.54,0,0,1-.51-.33,1.5,1.5,0,0,1-.33-.51,1.86,1.86,0,0,1,0-1.34,1.66,1.66,0,0,1,.38-.53,1.54,1.54,0,0,1,.57-.36,1.88,1.88,0,0,1,.72-.13,1.73,1.73,0,0,1,.69.13,1.42,1.42,0,0,1,.54.36,1.52,1.52,0,0,1,.35.56,1.88,1.88,0,0,1,.13.72,2.16,2.16,0,0,1-.18.82,4.1,4.1,0,0,1-.22.41l-.29.45L149,105.82a.21.21,0,0,1-.19.09h-.35l1.67-2.33.23-.32.18-.29a1.49,1.49,0,0,1-.56.39A1.7,1.7,0,0,1,149.31,103.5Zm1.54-1.61a1.47,1.47,0,0,0-.1-.56,1.33,1.33,0,0,0-.28-.44,1.15,1.15,0,0,0-.43-.28,1.32,1.32,0,0,0-.53-.11,1.81,1.81,0,0,0-.58.1,1.48,1.48,0,0,0-.45.28,1.31,1.31,0,0,0-.39,1,1.48,1.48,0,0,0,.1.57,1.17,1.17,0,0,0,.27.42,1.13,1.13,0,0,0,.42.27,1.53,1.53,0,0,0,.54.09,1.48,1.48,0,0,0,.61-.12,1.33,1.33,0,0,0,.73-.72A1.36,1.36,0,0,0,150.85,101.89Z" transform="translate(0.03 0.05)"/><path class="cls-3" d="M92.4,113.46l0,0h0a.25.25,0,0,1-.11-.05,1,1,0,0,0-.19-.12,1.7,1.7,0,0,0-.29-.12,1.61,1.61,0,0,0-.42,0,1.48,1.48,0,0,0-.61.12,1.19,1.19,0,0,0-.45.35,1.78,1.78,0,0,0-.28.55,2.75,2.75,0,0,0-.09.73,2.37,2.37,0,0,0,.1.74,1.5,1.5,0,0,0,.28.55,1.18,1.18,0,0,0,.43.34,1.32,1.32,0,0,0,.57.11,1.65,1.65,0,0,0,.48-.06,2,2,0,0,0,.32-.15,2.07,2.07,0,0,0,.2-.15.26.26,0,0,1,.12-.07.12.12,0,0,1,.08,0l.1.13a1.21,1.21,0,0,1-.23.22,1.4,1.4,0,0,1-.32.18,1.89,1.89,0,0,1-.38.12,2,2,0,0,1-.43,0,1.73,1.73,0,0,1-.69-.13,1.65,1.65,0,0,1-.54-.4,1.84,1.84,0,0,1-.35-.65,2.55,2.55,0,0,1-.13-.86,2.73,2.73,0,0,1,.12-.83,1.93,1.93,0,0,1,.35-.65,1.51,1.51,0,0,1,.57-.42,1.81,1.81,0,0,1,.76-.15A1.85,1.85,0,0,1,92,113a1.93,1.93,0,0,1,.53.34Z" transform="translate(0.03 0.05)"/><path class="cls-3" d="M94.93,112.87a2.07,2.07,0,0,1,.77.14,1.69,1.69,0,0,1,.57.42,1.88,1.88,0,0,1,.35.64,2.86,2.86,0,0,1,.13.85,2.74,2.74,0,0,1-.13.84,1.93,1.93,0,0,1-.35.65,1.66,1.66,0,0,1-.57.41,1.89,1.89,0,0,1-.77.14,1.84,1.84,0,0,1-.76-.14,1.61,1.61,0,0,1-.58-.41,1.93,1.93,0,0,1-.35-.65,2.75,2.75,0,0,1-.12-.84,2.86,2.86,0,0,1,.12-.85,1.88,1.88,0,0,1,.35-.64,1.63,1.63,0,0,1,.58-.42A2,2,0,0,1,94.93,112.87Zm0,3.79a1.46,1.46,0,0,0,.62-.12,1.19,1.19,0,0,0,.45-.35,1.34,1.34,0,0,0,.26-.55,2.63,2.63,0,0,0,.09-.72,2.73,2.73,0,0,0-.09-.72,1.34,1.34,0,0,0-.26-.55,1.22,1.22,0,0,0-.45-.36,1.46,1.46,0,0,0-.62-.12,1.52,1.52,0,0,0-.62.12,1.19,1.19,0,0,0-.44.36,1.49,1.49,0,0,0-.27.55,2.73,2.73,0,0,0-.09.72,2.63,2.63,0,0,0,.09.72,1.49,1.49,0,0,0,.27.55,1.16,1.16,0,0,0,.44.35A1.52,1.52,0,0,0,94.93,116.66Z" transform="translate(0.03 0.05)"/><path class="cls-3" d="M97.89,116.91v-3.56l-.56,0a.1.1,0,0,1-.11-.1v-.15h.67v-.51A1.89,1.89,0,0,1,98,112a1.22,1.22,0,0,1,.25-.43.94.94,0,0,1,.39-.25,1.3,1.3,0,0,1,.49-.09l.25,0,.22.06v.19s0,0-.07,0h-.33a1.06,1.06,0,0,0-.37.06.75.75,0,0,0-.28.18,1,1,0,0,0-.19.34,1.77,1.77,0,0,0-.07.5v.5h1.3v.28H98.27v3.57Z" transform="translate(0.03 0.05)"/><path class="cls-3" d="M100.47,116.91v-3.56l-.56,0c-.08,0-.12,0-.12-.1v-.15h.68v-.51a1.89,1.89,0,0,1,.09-.6,1.37,1.37,0,0,1,.24-.43,1,1,0,0,1,.39-.25,1.35,1.35,0,0,1,.5-.09l.25,0,.22.06v.19s0,0-.08,0h-.33a1,1,0,0,0-.36.06.79.79,0,0,0-.29.18.85.85,0,0,0-.18.34,1.47,1.47,0,0,0-.07.5v.5h1.29v.28h-1.28v3.57Z" transform="translate(0.03 0.05)"/><path class="cls-3" d="M102.9,116.91v-4h.2a.12.12,0,0,1,.09,0,.13.13,0,0,1,0,.1l0,.84a1.88,1.88,0,0,1,.51-.76,1.21,1.21,0,0,1,.79-.28,1.66,1.66,0,0,1,.33,0,1.45,1.45,0,0,1,.29.11l-.05.27a.08.08,0,0,1-.08.06.11.11,0,0,1-.07,0l-.11,0a.62.62,0,0,0-.16,0h-.22a1,1,0,0,0-.74.28,1.87,1.87,0,0,0-.47.8v2.59Z" transform="translate(0.03 0.05)"/><path class="cls-3" d="M107.57,112.87a1.75,1.75,0,0,1,.62.11,1.43,1.43,0,0,1,.5.34,1.58,1.58,0,0,1,.33.55,2.09,2.09,0,0,1,.12.74.17.17,0,0,1,0,.12.1.1,0,0,1-.08,0h-2.87v.08a2.71,2.71,0,0,0,.1.79,1.63,1.63,0,0,0,.3.57,1.11,1.11,0,0,0,.46.34,1.48,1.48,0,0,0,.61.12,1.64,1.64,0,0,0,.52-.07,2.21,2.21,0,0,0,.37-.14l.24-.15a.26.26,0,0,1,.12-.07.09.09,0,0,1,.08,0l.11.13a1.16,1.16,0,0,1-.26.22,1.64,1.64,0,0,1-.35.18,2.77,2.77,0,0,1-.41.12,2.28,2.28,0,0,1-.45,0,1.78,1.78,0,0,1-.74-.14,1.5,1.5,0,0,1-.58-.41,1.88,1.88,0,0,1-.37-.67,2.75,2.75,0,0,1-.13-.9,2.47,2.47,0,0,1,.12-.79,1.79,1.79,0,0,1,.35-.62,1.54,1.54,0,0,1,.56-.41A1.87,1.87,0,0,1,107.57,112.87Zm0,.28a1.35,1.35,0,0,0-.55.1,1.09,1.09,0,0,0-.42.27,1.35,1.35,0,0,0-.29.44,2.18,2.18,0,0,0-.15.56h2.62a2,2,0,0,0-.08-.57,1.28,1.28,0,0,0-.25-.43,1.05,1.05,0,0,0-.39-.27A1.13,1.13,0,0,0,107.58,113.15Z" transform="translate(0.03 0.05)"/><path class="cls-3" d="M114.18,116.16a.69.69,0,0,1-.53-.19.77.77,0,0,1-.19-.53,1.39,1.39,0,0,1-.5.54,1.18,1.18,0,0,1-.61.16.94.94,0,0,1-.39-.07.84.84,0,0,1-.27-.22.8.8,0,0,1-.16-.32,1.23,1.23,0,0,1-.06-.39,2.1,2.1,0,0,1,.13-.69,2.15,2.15,0,0,1,.38-.61,2.06,2.06,0,0,1,.62-.45,2,2,0,0,1,.82-.17,1.64,1.64,0,0,1,.4,0,1.13,1.13,0,0,1,.34.1l-.37,1.39c0,.12-.05.23-.07.33s0,.18,0,.26a.81.81,0,0,0,0,.29.43.43,0,0,0,.12.17.56.56,0,0,0,.17.09l.2,0a.88.88,0,0,0,.44-.12,1.32,1.32,0,0,0,.37-.34,1.93,1.93,0,0,0,.25-.54,2.6,2.6,0,0,0,.09-.71,2.53,2.53,0,0,0-.19-1,2,2,0,0,0-1.31-1.17,2.89,2.89,0,0,0-.94-.15,2.65,2.65,0,0,0-1,.21,2.84,2.84,0,0,0-.86.6,3,3,0,0,0-.59.9,3.11,3.11,0,0,0-.21,1.16,3.19,3.19,0,0,0,.22,1.24,2.54,2.54,0,0,0,.62.9,2.51,2.51,0,0,0,.9.55,3.39,3.39,0,0,0,1.1.19,4.11,4.11,0,0,0,1.09-.14,3.11,3.11,0,0,0,.89-.4l.06,0a.08.08,0,0,1,.08.06l.06.15a3.25,3.25,0,0,1-1,.45,4.1,4.1,0,0,1-1.2.16,3.53,3.53,0,0,1-1.23-.21,2.79,2.79,0,0,1-1-.61,2.76,2.76,0,0,1-.67-1,3.46,3.46,0,0,1-.25-1.33,3.15,3.15,0,0,1,.24-1.24,3.12,3.12,0,0,1,.64-1,3,3,0,0,1,2.12-.89,3.22,3.22,0,0,1,1,.16,2.68,2.68,0,0,1,.87.5,2.39,2.39,0,0,1,.6.82,2.65,2.65,0,0,1,.23,1.13,2.53,2.53,0,0,1-.12.8,1.86,1.86,0,0,1-.32.61,1.41,1.41,0,0,1-.47.41A1.27,1.27,0,0,1,114.18,116.16Zm-1.76-.28a1,1,0,0,0,.3,0,.79.79,0,0,0,.29-.17,1.35,1.35,0,0,0,.27-.34,2.44,2.44,0,0,0,.21-.55l.32-1.24-.2,0h-.24a1.38,1.38,0,0,0-.65.14,1.74,1.74,0,0,0-.5.38,1.71,1.71,0,0,0-.32.53,1.61,1.61,0,0,0-.12.6,1.54,1.54,0,0,0,0,.3.71.71,0,0,0,.12.23.62.62,0,0,0,.2.16A.61.61,0,0,0,112.42,115.88Z" transform="translate(0.03 0.05)"/><path class="cls-3" d="M118.92,113.43s0,0-.08,0a.19.19,0,0,1-.12,0l-.18-.11a1.49,1.49,0,0,0-.28-.11,1.58,1.58,0,0,0-.41,0,1.23,1.23,0,0,0-.39.06,1,1,0,0,0-.31.17.72.72,0,0,0-.19.24.59.59,0,0,0-.07.29.52.52,0,0,0,.09.31.92.92,0,0,0,.26.21,1.6,1.6,0,0,0,.35.15l.41.13.4.14a1.58,1.58,0,0,1,.36.2,1,1,0,0,1,.25.28.86.86,0,0,1,.09.41,1.28,1.28,0,0,1-.09.48,1.05,1.05,0,0,1-.27.39,1.28,1.28,0,0,1-.44.26,1.78,1.78,0,0,1-.59.1,1.83,1.83,0,0,1-.73-.14,1.93,1.93,0,0,1-.54-.35l.09-.13s0,0,0,0l.06,0a.19.19,0,0,1,.13.07l.2.13a1.4,1.4,0,0,0,.3.14,1.48,1.48,0,0,0,.9,0,1,1,0,0,0,.32-.19.81.81,0,0,0,.19-.29.77.77,0,0,0,.07-.34.52.52,0,0,0-.1-.33.76.76,0,0,0-.25-.22,1.25,1.25,0,0,0-.35-.16l-.41-.13-.41-.14a1.31,1.31,0,0,1-.35-.19,1,1,0,0,1-.26-.28.87.87,0,0,1-.09-.42.93.93,0,0,1,.09-.4,1.1,1.1,0,0,1,.26-.35,1.14,1.14,0,0,1,.42-.23,1.53,1.53,0,0,1,.54-.09,1.85,1.85,0,0,1,.65.1,1.53,1.53,0,0,1,.52.33Z" transform="translate(0.03 0.05)"/><path class="cls-3" d="M122.71,116.91a.13.13,0,0,1-.15-.11l0-.51a2.86,2.86,0,0,1-.33.29,1.79,1.79,0,0,1-.34.22,1.88,1.88,0,0,1-.38.13,2,2,0,0,1-.44,0,1.34,1.34,0,0,1-.4-.06,1,1,0,0,1-.34-.19.87.87,0,0,1-.24-.32A1,1,0,0,1,120,116a.8.8,0,0,1,.15-.47,1.16,1.16,0,0,1,.45-.38,3,3,0,0,1,.78-.25,6.35,6.35,0,0,1,1.16-.11v-.42a1.32,1.32,0,0,0-.24-.85.83.83,0,0,0-.7-.3,1.4,1.4,0,0,0-.49.08,1.53,1.53,0,0,0-.34.18,1.72,1.72,0,0,0-.23.17.22.22,0,0,1-.15.08.13.13,0,0,1-.12-.07l-.07-.11a2.41,2.41,0,0,1,.66-.48,1.94,1.94,0,0,1,.78-.16,1.4,1.4,0,0,1,.56.11,1,1,0,0,1,.4.29,1.24,1.24,0,0,1,.23.46,1.9,1.9,0,0,1,.08.6v2.59Zm-1.6-.21a1.88,1.88,0,0,0,.43,0,1.42,1.42,0,0,0,.36-.14,2.11,2.11,0,0,0,.31-.21l.28-.27v-1a6.57,6.57,0,0,0-1,.09,3,3,0,0,0-.67.19.94.94,0,0,0-.39.28.6.6,0,0,0-.13.38.75.75,0,0,0,.07.35.61.61,0,0,0,.17.24.77.77,0,0,0,.25.14A1,1,0,0,0,121.11,116.7Z" transform="translate(0.03 0.05)"/><path class="cls-3" d="M125.38,112.86a1.85,1.85,0,0,1,.48.07,1.32,1.32,0,0,1,.4.18h1v.13c0,.07,0,.1-.12.11l-.6,0a1.35,1.35,0,0,1,.17.34,1.4,1.4,0,0,1,.06.41,1.24,1.24,0,0,1-.1.52,1.18,1.18,0,0,1-.29.4,1.33,1.33,0,0,1-.45.26,1.7,1.7,0,0,1-.57.09,1.81,1.81,0,0,1-.63-.1.73.73,0,0,0-.26.23.38.38,0,0,0-.1.25.32.32,0,0,0,.12.27.86.86,0,0,0,.32.13,2,2,0,0,0,.45,0l.52,0,.51,0a1.64,1.64,0,0,1,.46.13.76.76,0,0,1,.31.25.71.71,0,0,1,.12.43,1,1,0,0,1-.12.47,1.16,1.16,0,0,1-.36.41,1.73,1.73,0,0,1-.56.28,2.51,2.51,0,0,1-.75.11,2.65,2.65,0,0,1-.73-.09,1.73,1.73,0,0,1-.53-.23,1.06,1.06,0,0,1-.33-.34.83.83,0,0,1-.1-.41.8.8,0,0,1,.2-.54,1.33,1.33,0,0,1,.58-.35.73.73,0,0,1-.32-.2.49.49,0,0,1-.12-.36.55.55,0,0,1,0-.17.81.81,0,0,1,.1-.18.8.8,0,0,1,.15-.17,1.13,1.13,0,0,1,.21-.15,1.21,1.21,0,0,1-.44-.43,1.24,1.24,0,0,1-.16-.64,1.42,1.42,0,0,1,.1-.52,1.18,1.18,0,0,1,.29-.4,1.26,1.26,0,0,1,.45-.26A1.59,1.59,0,0,1,125.38,112.86Zm1.47,4.32a.4.4,0,0,0-.1-.3.55.55,0,0,0-.26-.18,1.77,1.77,0,0,0-.38-.09l-.44,0-.47,0-.44,0-.29.14a1.28,1.28,0,0,0-.22.17.74.74,0,0,0-.14.22.55.55,0,0,0,0,.26.59.59,0,0,0,.09.32.72.72,0,0,0,.26.26,1.3,1.3,0,0,0,.43.18,2.46,2.46,0,0,0,.58.06A2,2,0,0,0,126,118a1.48,1.48,0,0,0,.46-.19.93.93,0,0,0,.3-.29A.65.65,0,0,0,126.85,117.18Zm-1.47-2a1.25,1.25,0,0,0,.45-.07.89.89,0,0,0,.34-.21.79.79,0,0,0,.2-.31,1.1,1.1,0,0,0,.07-.41,1.07,1.07,0,0,0-.07-.41.89.89,0,0,0-.21-.32.79.79,0,0,0-.33-.2,1.33,1.33,0,0,0-.45-.08,1.34,1.34,0,0,0-.46.08.79.79,0,0,0-.33.2.69.69,0,0,0-.21.32,1.07,1.07,0,0,0-.08.41,1.11,1.11,0,0,0,.08.41.72.72,0,0,0,.21.31.93.93,0,0,0,.33.21A1.35,1.35,0,0,0,125.38,115.15Z" transform="translate(0.03 0.05)"/><path class="cls-3" d="M128.76,111.56a.28.28,0,0,1,0,.13.31.31,0,0,1-.08.11.28.28,0,0,1-.11.08.32.32,0,0,1-.14,0,.31.31,0,0,1-.13,0,.28.28,0,0,1-.11-.08.23.23,0,0,1-.08-.11.28.28,0,0,1,0-.13.35.35,0,0,1,0-.14.28.28,0,0,1,.08-.11l.11-.08a.31.31,0,0,1,.13,0,.32.32,0,0,1,.14,0l.11.08a.44.44,0,0,1,.08.11A.35.35,0,0,1,128.76,111.56Zm-.17,1.37v4h-.38v-4Z" transform="translate(0.03 0.05)"/><path class="cls-3" d="M132.19,113.43a.09.09,0,0,1-.09,0,.17.17,0,0,1-.11,0l-.18-.11a1.49,1.49,0,0,0-.28-.11,1.58,1.58,0,0,0-.41,0,1.18,1.18,0,0,0-.39.06,1,1,0,0,0-.31.17.72.72,0,0,0-.19.24.59.59,0,0,0-.07.29.52.52,0,0,0,.09.31,1,1,0,0,0,.25.21,1.94,1.94,0,0,0,.36.15l.4.13.41.14a1.33,1.33,0,0,1,.35.2.87.87,0,0,1,.26.28.86.86,0,0,1,.09.41,1.28,1.28,0,0,1-.09.48,1.19,1.19,0,0,1-.27.39,1.28,1.28,0,0,1-.44.26,1.89,1.89,0,0,1-1.32,0,1.93,1.93,0,0,1-.54-.35l.09-.13,0,0,.07,0a.19.19,0,0,1,.13.07l.2.13a1.4,1.4,0,0,0,.75.21,1.52,1.52,0,0,0,.45-.07,1.13,1.13,0,0,0,.32-.19.81.81,0,0,0,.19-.29.94.94,0,0,0,.07-.34.59.59,0,0,0-.1-.33.76.76,0,0,0-.25-.22,1.31,1.31,0,0,0-.36-.16l-.4-.13-.41-.14a1.55,1.55,0,0,1-.36-.19,1.12,1.12,0,0,1-.25-.28.87.87,0,0,1-.09-.42.93.93,0,0,1,.09-.4,1.09,1.09,0,0,1,.67-.58,1.63,1.63,0,0,1,.55-.09,1.89,1.89,0,0,1,.65.1,1.53,1.53,0,0,1,.52.33Z" transform="translate(0.03 0.05)"/><path class="cls-3" d="M133.19,114.38h1.86v.32h-1.86Z" transform="translate(0.03 0.05)"/><path class="cls-3" d="M138.64,116.91a.13.13,0,0,1-.15-.11l-.05-.51a2.86,2.86,0,0,1-.33.29,1.79,1.79,0,0,1-.34.22,2.12,2.12,0,0,1-.38.13,2,2,0,0,1-.45,0,1.32,1.32,0,0,1-.39-.06,1,1,0,0,1-.34-.19.87.87,0,0,1-.24-.32,1,1,0,0,1-.09-.46.86.86,0,0,1,.14-.47,1.33,1.33,0,0,1,.45-.38,3.2,3.2,0,0,1,.79-.25,6.26,6.26,0,0,1,1.16-.11v-.42a1.32,1.32,0,0,0-.24-.85.84.84,0,0,0-.7-.3,1.36,1.36,0,0,0-.49.08,1.9,1.9,0,0,0-.35.18,1.54,1.54,0,0,0-.22.17.22.22,0,0,1-.15.08.11.11,0,0,1-.12-.07l-.07-.11a2.41,2.41,0,0,1,.66-.48,1.94,1.94,0,0,1,.78-.16,1.4,1.4,0,0,1,.56.11.87.87,0,0,1,.39.29,1.12,1.12,0,0,1,.24.46,1.9,1.9,0,0,1,.08.6v2.59Zm-1.6-.21a2,2,0,0,0,.43,0,1.42,1.42,0,0,0,.36-.14,2.11,2.11,0,0,0,.31-.21l.28-.27v-1a6.57,6.57,0,0,0-1,.09,2.86,2.86,0,0,0-.67.19,1,1,0,0,0-.4.28.66.66,0,0,0-.12.38.91.91,0,0,0,.06.35.76.76,0,0,0,.18.24.68.68,0,0,0,.25.14A1,1,0,0,0,137,116.7Z" transform="translate(0.03 0.05)"/><path class="cls-3" d="M140,116.91v-4h.21a.11.11,0,0,1,.12.1l0,.58a2.43,2.43,0,0,1,.24-.3,2.17,2.17,0,0,1,.29-.24,1.57,1.57,0,0,1,.32-.15,1.34,1.34,0,0,1,.35,0,1,1,0,0,1,.7.25,1.36,1.36,0,0,1,.35.71,1.56,1.56,0,0,1,.2-.43,1.42,1.42,0,0,1,.3-.3,1.14,1.14,0,0,1,.37-.17,1.34,1.34,0,0,1,.4-.06,1.25,1.25,0,0,1,.53.1,1,1,0,0,1,.4.29,1.25,1.25,0,0,1,.26.47,2.11,2.11,0,0,1,.09.64v2.54h-.38v-2.54a1.35,1.35,0,0,0-.26-.89.85.85,0,0,0-.72-.31,1,1,0,0,0-.39.08,1,1,0,0,0-.34.22,1.1,1.1,0,0,0-.23.38,1.38,1.38,0,0,0-.09.52v2.54h-.38v-2.54a1.5,1.5,0,0,0-.23-.89.78.78,0,0,0-.68-.31,1.05,1.05,0,0,0-.6.2,1.94,1.94,0,0,0-.49.53v3Z" transform="translate(0.03 0.05)"/><path class="cls-3" d="M146.13,116.6a.35.35,0,0,1,0-.14.37.37,0,0,1,.07-.12l.12-.08a.33.33,0,0,1,.15,0,.35.35,0,0,1,.14,0,.5.5,0,0,1,.12.08l.08.12a.35.35,0,0,1,0,.14.33.33,0,0,1,0,.15l-.08.12a.29.29,0,0,1-.12.07.35.35,0,0,1-.14,0,.34.34,0,0,1-.37-.37Z" transform="translate(0.03 0.05)"/><path class="cls-3" d="M150.55,113.46l0,0h-.05a.21.21,0,0,1-.11-.05,1,1,0,0,0-.19-.12l-.29-.12a1.73,1.73,0,0,0-.42,0,1.48,1.48,0,0,0-.61.12,1.19,1.19,0,0,0-.45.35,1.78,1.78,0,0,0-.28.55,2.75,2.75,0,0,0-.09.73,2.37,2.37,0,0,0,.1.74,1.49,1.49,0,0,0,.27.55,1.22,1.22,0,0,0,.44.34,1.32,1.32,0,0,0,.57.11,1.65,1.65,0,0,0,.48-.06,2,2,0,0,0,.32-.15,2.07,2.07,0,0,0,.2-.15.26.26,0,0,1,.12-.07.12.12,0,0,1,.08,0l.1.13a1.21,1.21,0,0,1-.23.22,1.4,1.4,0,0,1-.32.18,1.89,1.89,0,0,1-.38.12,2,2,0,0,1-.43,0,1.73,1.73,0,0,1-.69-.13,1.65,1.65,0,0,1-.54-.4,2,2,0,0,1-.36-.65,2.84,2.84,0,0,1-.12-.86,2.73,2.73,0,0,1,.12-.83,1.93,1.93,0,0,1,.35-.65,1.56,1.56,0,0,1,.56-.42,1.89,1.89,0,0,1,.77-.15,1.85,1.85,0,0,1,.69.12,1.93,1.93,0,0,1,.53.34Z" transform="translate(0.03 0.05)"/><path class="cls-3" d="M153.09,112.87a2.07,2.07,0,0,1,.77.14,1.69,1.69,0,0,1,.57.42,1.88,1.88,0,0,1,.35.64,2.86,2.86,0,0,1,.12.85,2.75,2.75,0,0,1-.12.84,1.93,1.93,0,0,1-.35.65,1.66,1.66,0,0,1-.57.41,1.89,1.89,0,0,1-.77.14,1.84,1.84,0,0,1-.76-.14,1.61,1.61,0,0,1-.58-.41,1.93,1.93,0,0,1-.35-.65,2.75,2.75,0,0,1-.12-.84,2.86,2.86,0,0,1,.12-.85,1.88,1.88,0,0,1,.35-.64,1.63,1.63,0,0,1,.58-.42A2,2,0,0,1,153.09,112.87Zm0,3.79a1.46,1.46,0,0,0,.62-.12,1.19,1.19,0,0,0,.45-.35,1.34,1.34,0,0,0,.26-.55,2.63,2.63,0,0,0,.09-.72,2.73,2.73,0,0,0-.09-.72,1.34,1.34,0,0,0-.26-.55,1.22,1.22,0,0,0-.45-.36,1.46,1.46,0,0,0-.62-.12,1.49,1.49,0,0,0-.62.12,1.11,1.11,0,0,0-.44.36,1.49,1.49,0,0,0-.27.55,2.73,2.73,0,0,0-.09.72,2.63,2.63,0,0,0,.09.72,1.49,1.49,0,0,0,.27.55,1.09,1.09,0,0,0,.44.35A1.49,1.49,0,0,0,153.09,116.66Z" transform="translate(0.03 0.05)"/><path class="cls-3" d="M155.9,116.91v-4h.21a.11.11,0,0,1,.12.1l0,.58a1.81,1.81,0,0,1,.25-.3,1.61,1.61,0,0,1,.28-.24,1.57,1.57,0,0,1,.32-.15,1.36,1.36,0,0,1,.36,0,.93.93,0,0,1,.69.25,1.36,1.36,0,0,1,.35.71,1.33,1.33,0,0,1,.21-.43,1.18,1.18,0,0,1,.29-.3,1.24,1.24,0,0,1,.37-.17,1.39,1.39,0,0,1,.4-.06,1.33,1.33,0,0,1,.54.1,1,1,0,0,1,.4.29,1.24,1.24,0,0,1,.25.47,2.11,2.11,0,0,1,.09.64v2.54h-.38v-2.54a1.41,1.41,0,0,0-.25-.89.87.87,0,0,0-.72-.31,1.06,1.06,0,0,0-.4.08,1,1,0,0,0-.34.22,1.1,1.1,0,0,0-.23.38,1.38,1.38,0,0,0-.09.52v2.54h-.38v-2.54a1.43,1.43,0,0,0-.23-.89.77.77,0,0,0-.67-.31,1,1,0,0,0-.6.2,1.83,1.83,0,0,0-.5.53v3Z" transform="translate(0.03 0.05)"/><path d="M66.86,135.25v.17c0,.05,0,.09,0,.12a.25.25,0,0,1,0,.09l-2.59,5.14s0,.08-.09.1a.21.21,0,0,1-.14,0h-.26l2.61-5.12a1.22,1.22,0,0,1,.12-.19H63.2a.1.1,0,0,1-.1-.1v-.25Z" transform="translate(0.03 0.05)"/><path d="M69.62,135.19a2.11,2.11,0,0,1,.62.09,1.4,1.4,0,0,1,.52.29,1.31,1.31,0,0,1,.36.47,1.74,1.74,0,0,1,.13.67,1.93,1.93,0,0,1-.1.6,2.34,2.34,0,0,1-.27.52,3.49,3.49,0,0,1-.39.49l-.46.49-1.78,1.81a1.28,1.28,0,0,1,.27-.05l.28,0h2.44a.11.11,0,0,1,.1,0,.13.13,0,0,1,0,.1v.22H67.73v-.13a.29.29,0,0,1,0-.09l.06-.08,1.93-2c.16-.16.31-.32.44-.47a3,3,0,0,0,.36-.46,1.77,1.77,0,0,0,.23-.48,1.46,1.46,0,0,0,.09-.52,1.33,1.33,0,0,0-.11-.54,1.05,1.05,0,0,0-.27-.38,1.41,1.41,0,0,0-.4-.22,1.85,1.85,0,0,0-.48-.07,1.53,1.53,0,0,0-.49.08,1.44,1.44,0,0,0-.4.23,1.39,1.39,0,0,0-.29.35,1.29,1.29,0,0,0-.16.44.15.15,0,0,1-.16.14h0l-.19,0a1.84,1.84,0,0,1,.2-.65,1.5,1.5,0,0,1,.38-.48,1.68,1.68,0,0,1,.52-.3A2,2,0,0,1,69.62,135.19Z" transform="translate(0.03 0.05)"/><path d="M76.59,140.91a.13.13,0,0,1-.15-.11l-.06-.51a2.8,2.8,0,0,1-.32.29,1.79,1.79,0,0,1-.34.22,2,2,0,0,1-.83.18,1.23,1.23,0,0,1-.39-.06.94.94,0,0,1-.34-.19.87.87,0,0,1-.24-.32,1,1,0,0,1-.09-.46.86.86,0,0,1,.14-.47,1.33,1.33,0,0,1,.45-.38,3.2,3.2,0,0,1,.79-.25,6.26,6.26,0,0,1,1.16-.11v-.42a1.32,1.32,0,0,0-.24-.85.85.85,0,0,0-.71-.3,1.44,1.44,0,0,0-.49.08,1.79,1.79,0,0,0-.34.18l-.23.17a.22.22,0,0,1-.15.08.13.13,0,0,1-.12-.07L74,137.5a2.37,2.37,0,0,1,.65-.48,1.94,1.94,0,0,1,.78-.16A1.36,1.36,0,0,1,76,137a.9.9,0,0,1,.4.29,1.12,1.12,0,0,1,.24.46,2.23,2.23,0,0,1,.08.6v2.59ZM75,140.7a1.86,1.86,0,0,0,.42,0,1.42,1.42,0,0,0,.36-.14,1.69,1.69,0,0,0,.31-.21l.29-.27v-1a6.44,6.44,0,0,0-1,.09,3.12,3.12,0,0,0-.68.19,1.09,1.09,0,0,0-.39.28.66.66,0,0,0-.12.38.91.91,0,0,0,.06.35.55.55,0,0,0,.18.24.68.68,0,0,0,.25.14A1,1,0,0,0,75,140.7Z" transform="translate(0.03 0.05)"/><path d="M79.31,140.91H79l-1.68-4h.3a.12.12,0,0,1,.09,0,.18.18,0,0,1,0,.07L79,140.17a.7.7,0,0,1,.06.17,1.36,1.36,0,0,1,0,.17s0-.11,0-.17a1.54,1.54,0,0,1,0-.17L80.56,137a.2.2,0,0,1,.06-.07.11.11,0,0,1,.08,0H81Z" transform="translate(0.03 0.05)"/><path d="M83.16,136.87a1.85,1.85,0,0,1,.63.11,1.39,1.39,0,0,1,.49.34,1.58,1.58,0,0,1,.33.55,2.09,2.09,0,0,1,.12.74.17.17,0,0,1,0,.12.1.1,0,0,1-.08,0H81.75v.08a2.71,2.71,0,0,0,.1.79,1.63,1.63,0,0,0,.3.57,1.18,1.18,0,0,0,.46.34,1.51,1.51,0,0,0,.61.12,1.64,1.64,0,0,0,.52-.07,1.92,1.92,0,0,0,.37-.14l.24-.15a.23.23,0,0,1,.13-.07.12.12,0,0,1,.08,0l.1.13a1.09,1.09,0,0,1-.25.22,2,2,0,0,1-.36.18,2.45,2.45,0,0,1-.41.12,2.28,2.28,0,0,1-.45,0,1.78,1.78,0,0,1-.74-.14,1.5,1.5,0,0,1-.58-.41,1.88,1.88,0,0,1-.37-.67,2.75,2.75,0,0,1-.13-.9,2.47,2.47,0,0,1,.12-.79,1.79,1.79,0,0,1,.35-.62,1.57,1.57,0,0,1,.57-.41A1.79,1.79,0,0,1,83.16,136.87Zm0,.28a1.35,1.35,0,0,0-.55.1,1.17,1.17,0,0,0-.42.27,1.35,1.35,0,0,0-.29.44,2.18,2.18,0,0,0-.15.56h2.62a2,2,0,0,0-.08-.57,1.28,1.28,0,0,0-.25-.43,1.05,1.05,0,0,0-.39-.27A1.1,1.1,0,0,0,83.17,137.15Z" transform="translate(0.03 0.05)"/><path d="M85.75,140.91v-4H86a.11.11,0,0,1,.12.1l0,.6a2.19,2.19,0,0,1,.63-.55,1.58,1.58,0,0,1,.81-.21,1.45,1.45,0,0,1,.57.1,1.08,1.08,0,0,1,.42.3,1.23,1.23,0,0,1,.24.47,2.08,2.08,0,0,1,.09.63v2.54H88.5v-2.54a1.38,1.38,0,0,0-.26-.88,1,1,0,0,0-.78-.32,1.46,1.46,0,0,0-.73.2,2.25,2.25,0,0,0-.6.56v3Z" transform="translate(0.03 0.05)"/><path d="M90.36,136.93v2.55a1.29,1.29,0,0,0,.26.87.92.92,0,0,0,.78.32,1.36,1.36,0,0,0,.73-.2,2.06,2.06,0,0,0,.6-.55v-3h.38v4H92.9c-.07,0-.11,0-.11-.1l0-.59a2.23,2.23,0,0,1-.64.55,1.58,1.58,0,0,1-.81.21,1.5,1.5,0,0,1-.58-.11,1.12,1.12,0,0,1-.41-.3,1.41,1.41,0,0,1-.25-.47,2.33,2.33,0,0,1-.08-.62v-2.55Z" transform="translate(0.03 0.05)"/><path d="M95.91,136.87a1.8,1.8,0,0,1,.62.11,1.53,1.53,0,0,1,.5.34,1.56,1.56,0,0,1,.32.55,2.09,2.09,0,0,1,.12.74.29.29,0,0,1,0,.12.12.12,0,0,1-.09,0H94.49v.08a3.1,3.1,0,0,0,.1.79,1.63,1.63,0,0,0,.3.57,1.14,1.14,0,0,0,.47.34,1.46,1.46,0,0,0,.6.12,1.6,1.6,0,0,0,.52-.07,1.92,1.92,0,0,0,.37-.14l.24-.15a.23.23,0,0,1,.13-.07.12.12,0,0,1,.08,0l.1.13a1.09,1.09,0,0,1-.25.22,1.92,1.92,0,0,1-.35.18,2.58,2.58,0,0,1-.42.12,2.28,2.28,0,0,1-.45,0,1.81,1.81,0,0,1-.74-.14,1.58,1.58,0,0,1-.58-.41,1.88,1.88,0,0,1-.37-.67,2.75,2.75,0,0,1-.13-.9,2.47,2.47,0,0,1,.12-.79,1.79,1.79,0,0,1,.35-.62,1.66,1.66,0,0,1,.57-.41A1.81,1.81,0,0,1,95.91,136.87Zm0,.28a1.38,1.38,0,0,0-.55.1,1.17,1.17,0,0,0-.42.27,1.53,1.53,0,0,0-.29.44,1.84,1.84,0,0,0-.14.56h2.62A1.7,1.7,0,0,0,97,138a1.14,1.14,0,0,0-.25-.43,1,1,0,0,0-.38-.27A1.18,1.18,0,0,0,95.91,137.15Z" transform="translate(0.03 0.05)"/><path d="M99.45,135.25h.32a.17.17,0,0,1,.1,0,.22.22,0,0,1,0,.08l1.93,4.7a2.22,2.22,0,0,1,.12.39,1.8,1.8,0,0,1,.12-.39l1.92-4.7.06-.08a.17.17,0,0,1,.1,0h.32l-2.34,5.66h-.36Z" transform="translate(0.03 0.05)"/><path d="M105.85,135.56a.28.28,0,0,1,0,.13.3.3,0,0,1-.07.11.32.32,0,0,1-.12.08.28.28,0,0,1-.13,0,.35.35,0,0,1-.14,0,.28.28,0,0,1-.11-.08.31.31,0,0,1-.08-.11.51.51,0,0,1,0-.13.68.68,0,0,1,0-.14.44.44,0,0,1,.08-.11l.11-.08a.35.35,0,0,1,.14,0,.28.28,0,0,1,.13,0,.5.5,0,0,1,.12.08.41.41,0,0,1,.07.11A.35.35,0,0,1,105.85,135.56Zm-.16,1.37v4h-.38v-4Z" transform="translate(0.03 0.05)"/><path d="M109.71,137.46l0,0h-.05a.21.21,0,0,1-.11,0,1,1,0,0,0-.19-.12l-.29-.12a1.73,1.73,0,0,0-.42-.05,1.48,1.48,0,0,0-.61.12,1.19,1.19,0,0,0-.45.35,1.78,1.78,0,0,0-.28.55,2.75,2.75,0,0,0-.09.73,2.73,2.73,0,0,0,.09.74,1.67,1.67,0,0,0,.28.55,1.22,1.22,0,0,0,.44.34,1.32,1.32,0,0,0,.57.11,1.65,1.65,0,0,0,.48-.06,2.44,2.44,0,0,0,.32-.15,2.07,2.07,0,0,0,.2-.15.26.26,0,0,1,.12-.07.12.12,0,0,1,.08,0l.1.13a1.21,1.21,0,0,1-.23.22,1.65,1.65,0,0,1-.32.18,1.89,1.89,0,0,1-.38.12,2,2,0,0,1-.43,0,1.73,1.73,0,0,1-.69-.13,1.65,1.65,0,0,1-.54-.4,2,2,0,0,1-.36-.65,2.84,2.84,0,0,1-.12-.86,2.73,2.73,0,0,1,.12-.83,1.93,1.93,0,0,1,.35-.65,1.56,1.56,0,0,1,.56-.42,2,2,0,0,1,1.46,0,1.74,1.74,0,0,1,.52.34Z" transform="translate(0.03 0.05)"/><path d="M111.82,141a.85.85,0,0,1-.63-.23.94.94,0,0,1-.22-.69v-2.72h-.58l-.07,0a.09.09,0,0,1,0-.07v-.15l.68,0,.1-1.42a.09.09,0,0,1,0-.07l.07,0h.18v1.52h1.25v.28h-1.25V140a.79.79,0,0,0,0,.28.75.75,0,0,0,.11.2.54.54,0,0,0,.18.11.76.76,0,0,0,.21,0,.62.62,0,0,0,.25,0l.18-.09.13-.09s0,0,.07,0,0,0,.07,0l.1.16a.91.91,0,0,1-.39.27A1.13,1.13,0,0,1,111.82,141Z" transform="translate(0.03 0.05)"/><path d="M115.1,136.87a2.07,2.07,0,0,1,.77.14,1.69,1.69,0,0,1,.57.42,1.88,1.88,0,0,1,.35.64,2.86,2.86,0,0,1,.12.85,2.75,2.75,0,0,1-.12.84,1.93,1.93,0,0,1-.35.65,1.66,1.66,0,0,1-.57.41,1.89,1.89,0,0,1-.77.14,1.84,1.84,0,0,1-.76-.14,1.61,1.61,0,0,1-.58-.41,1.93,1.93,0,0,1-.35-.65,2.75,2.75,0,0,1-.12-.84,2.86,2.86,0,0,1,.12-.85,1.88,1.88,0,0,1,.35-.64,1.63,1.63,0,0,1,.58-.42A2,2,0,0,1,115.1,136.87Zm0,3.79a1.46,1.46,0,0,0,.62-.12,1.19,1.19,0,0,0,.45-.35,1.34,1.34,0,0,0,.26-.55,2.63,2.63,0,0,0,.09-.72,2.73,2.73,0,0,0-.09-.72,1.34,1.34,0,0,0-.26-.55,1.22,1.22,0,0,0-.45-.36,1.46,1.46,0,0,0-.62-.12,1.52,1.52,0,0,0-.62.12,1.19,1.19,0,0,0-.44.36,1.49,1.49,0,0,0-.27.55,2.73,2.73,0,0,0-.09.72,2.63,2.63,0,0,0,.09.72,1.49,1.49,0,0,0,.27.55,1.16,1.16,0,0,0,.44.35A1.52,1.52,0,0,0,115.1,140.66Z" transform="translate(0.03 0.05)"/><path d="M117.91,140.91v-4h.2a.13.13,0,0,1,.1,0,.19.19,0,0,1,0,.1l0,.84a1.88,1.88,0,0,1,.51-.76,1.19,1.19,0,0,1,.79-.28,1.66,1.66,0,0,1,.33,0,1.45,1.45,0,0,1,.29.11l0,.27a.08.08,0,0,1-.08.06.11.11,0,0,1-.07,0l-.11,0-.16,0h-.22a1,1,0,0,0-.75.28,2,2,0,0,0-.47.8v2.59Z" transform="translate(0.03 0.05)"/><path d="M127.19,140.91h-.41V138.2h-3.54v2.71h-.41v-5.66h.41v2.64h3.54v-2.64h.41Z" transform="translate(0.03 0.05)"/><path d="M129,136.93v2.55a1.35,1.35,0,0,0,.26.87.92.92,0,0,0,.78.32,1.36,1.36,0,0,0,.73-.2,2.06,2.06,0,0,0,.6-.55v-3h.38v4h-.21c-.07,0-.11,0-.11-.1l0-.59a2.11,2.11,0,0,1-.64.55,1.57,1.57,0,0,1-.8.21,1.46,1.46,0,0,1-.58-.11,1.08,1.08,0,0,1-.42-.3,1.23,1.23,0,0,1-.24-.47,2,2,0,0,1-.09-.62v-2.55Z" transform="translate(0.03 0.05)"/><path d="M134.32,136.86a1.73,1.73,0,0,1,.48.07,1.32,1.32,0,0,1,.4.18h1v.13c0,.07,0,.1-.11.11l-.61,0a1.11,1.11,0,0,1,.18.34,1.4,1.4,0,0,1,.06.41,1.24,1.24,0,0,1-.11.52,1.06,1.06,0,0,1-.29.4,1.28,1.28,0,0,1-.44.26,1.81,1.81,0,0,1-.58.09,1.72,1.72,0,0,1-.62-.1.77.77,0,0,0-.27.23.43.43,0,0,0-.09.25.32.32,0,0,0,.12.27.79.79,0,0,0,.32.13,2,2,0,0,0,.45.05l.51,0,.52,0a1.48,1.48,0,0,1,.45.13.8.8,0,0,1,.32.25.71.71,0,0,1,.12.43,1,1,0,0,1-.12.47,1.4,1.4,0,0,1-.36.41,1.9,1.9,0,0,1-.57.28,2.45,2.45,0,0,1-.74.11,2.73,2.73,0,0,1-.74-.09,1.73,1.73,0,0,1-.53-.23,1,1,0,0,1-.32-.34.84.84,0,0,1-.11-.41.76.76,0,0,1,.21-.54,1.35,1.35,0,0,1,.57-.35.8.8,0,0,1-.32-.2.49.49,0,0,1-.12-.36.59.59,0,0,1,0-.17.76.76,0,0,1,.09-.18,1.29,1.29,0,0,1,.16-.17,1.13,1.13,0,0,1,.21-.15,1.14,1.14,0,0,1-.44-.43,1.38,1.38,0,0,1-.06-1.16,1.06,1.06,0,0,1,.29-.4,1.11,1.11,0,0,1,.45-.26A1.54,1.54,0,0,1,134.32,136.86Zm1.48,4.32a.45.45,0,0,0-.1-.3.61.61,0,0,0-.26-.18,1.93,1.93,0,0,0-.38-.09l-.45,0-.47,0-.44-.05-.28.14a1,1,0,0,0-.22.17,1.07,1.07,0,0,0-.15.22.71.71,0,0,0-.05.26.59.59,0,0,0,.09.32.75.75,0,0,0,.27.26,1.16,1.16,0,0,0,.42.18,2.52,2.52,0,0,0,.58.06,2.12,2.12,0,0,0,.57-.07,1.53,1.53,0,0,0,.45-.19,1.08,1.08,0,0,0,.31-.29A.73.73,0,0,0,135.8,141.18Zm-1.48-2a1.35,1.35,0,0,0,.46-.07.93.93,0,0,0,.33-.21,1,1,0,0,0,.21-.31,1.1,1.1,0,0,0,.07-.41,1.07,1.07,0,0,0-.07-.41.89.89,0,0,0-.21-.32.83.83,0,0,0-.34-.2,1.31,1.31,0,0,0-.9,0,.83.83,0,0,0-.34.2.89.89,0,0,0-.21.32,1.07,1.07,0,0,0-.07.41,1.1,1.1,0,0,0,.07.41,1,1,0,0,0,.21.31,1,1,0,0,0,.34.21A1.25,1.25,0,0,0,134.32,139.15Z" transform="translate(0.03 0.05)"/><path d="M138.56,136.87a2.07,2.07,0,0,1,.77.14,1.69,1.69,0,0,1,.57.42,1.88,1.88,0,0,1,.35.64,2.86,2.86,0,0,1,.12.85,2.75,2.75,0,0,1-.12.84,1.93,1.93,0,0,1-.35.65,1.66,1.66,0,0,1-.57.41,1.89,1.89,0,0,1-.77.14,1.84,1.84,0,0,1-.76-.14,1.61,1.61,0,0,1-.58-.41,1.93,1.93,0,0,1-.35-.65,2.75,2.75,0,0,1-.12-.84,2.86,2.86,0,0,1,.12-.85,1.88,1.88,0,0,1,.35-.64,1.63,1.63,0,0,1,.58-.42A2,2,0,0,1,138.56,136.87Zm0,3.79a1.46,1.46,0,0,0,.62-.12,1.19,1.19,0,0,0,.45-.35,1.48,1.48,0,0,0,.26-.55,2.63,2.63,0,0,0,.09-.72,2.73,2.73,0,0,0-.09-.72,1.48,1.48,0,0,0-.26-.55,1.22,1.22,0,0,0-.45-.36,1.46,1.46,0,0,0-.62-.12,1.49,1.49,0,0,0-.62.12,1.11,1.11,0,0,0-.44.36,1.49,1.49,0,0,0-.27.55,2.73,2.73,0,0,0-.09.72,2.63,2.63,0,0,0,.09.72,1.49,1.49,0,0,0,.27.55,1.09,1.09,0,0,0,.44.35A1.49,1.49,0,0,0,138.56,140.66Z" transform="translate(0.03 0.05)"/><path d="M142.67,138.38h1.86v.32h-1.86Z" transform="translate(0.03 0.05)"/><path d="M150.76,135.25v.17a.37.37,0,0,1,0,.12l0,.09-2.6,5.14a.27.27,0,0,1-.08.1.23.23,0,0,1-.14,0h-.26l2.61-5.12a.76.76,0,0,1,.12-.19H147.1a.11.11,0,0,1-.08,0,.09.09,0,0,1,0-.07v-.25Z" transform="translate(0.03 0.05)"/><path d="M155,135.42a.18.18,0,0,1-.06.13s-.09,0-.17,0h-2l-.34,1.89a4.91,4.91,0,0,1,.5-.1l.46,0a2.27,2.27,0,0,1,.78.13,1.52,1.52,0,0,1,.56.35,1.38,1.38,0,0,1,.34.54,1.87,1.87,0,0,1,.12.68,1.84,1.84,0,0,1-.16.8,1.63,1.63,0,0,1-.42.6,1.65,1.65,0,0,1-.62.38,2.07,2.07,0,0,1-1.2.09,1.56,1.56,0,0,1-.4-.11,1.61,1.61,0,0,1-.35-.16,1.85,1.85,0,0,1-.27-.19l.11-.15a.11.11,0,0,1,.11-.06.29.29,0,0,1,.15.06l.25.13a2.64,2.64,0,0,0,.37.13,1.77,1.77,0,0,0,.49.06,1.74,1.74,0,0,0,.61-.11,1.35,1.35,0,0,0,.49-.3,1.32,1.32,0,0,0,.33-.5,1.83,1.83,0,0,0,0-1.22,1.16,1.16,0,0,0-.27-.44,1.19,1.19,0,0,0-.46-.28,1.84,1.84,0,0,0-.65-.11,4.22,4.22,0,0,0-.49,0,2.94,2.94,0,0,0-.54.12l-.25-.08.44-2.51H155Z" transform="translate(0.03 0.05)"/><path d="M157,140.62h1.3V136a2.72,2.72,0,0,1,0-.28l-1.25,1.11a.14.14,0,0,1-.09,0,.12.12,0,0,1-.11,0l-.11-.16,1.63-1.44h.3v5.39h1.24v.29H157Z" transform="translate(0.03 0.05)"/><path d="M161.63,140.62h1.3V136a2.72,2.72,0,0,1,0-.28l-1.25,1.11a.14.14,0,0,1-.09,0,.12.12,0,0,1-.11,0l-.11-.16,1.63-1.44h.3v5.39h1.23v.29h-2.91Z" transform="translate(0.03 0.05)"/><path d="M167.54,137.53a1.87,1.87,0,0,1,.68.12,1.55,1.55,0,0,1,.53.34,1.42,1.42,0,0,1,.34.52,1.75,1.75,0,0,1,.13.7,1.87,1.87,0,0,1-.14.71,1.79,1.79,0,0,1-.38.56,1.67,1.67,0,0,1-.59.36,2.06,2.06,0,0,1-.76.14,2.09,2.09,0,0,1-.72-.13,1.57,1.57,0,0,1-.56-.37,1.47,1.47,0,0,1-.36-.59,2.13,2.13,0,0,1-.13-.78,1.91,1.91,0,0,1,.17-.75,4.18,4.18,0,0,1,.55-.94l1.54-2.08a.24.24,0,0,1,.2-.09h.34l-1.69,2.21-.23.3-.18.29a1.59,1.59,0,0,1,.56-.38A1.62,1.62,0,0,1,167.54,137.53ZM166,139.2a1.59,1.59,0,0,0,.1.59,1.27,1.27,0,0,0,.28.46,1.15,1.15,0,0,0,.44.3,1.5,1.5,0,0,0,.58.11,1.71,1.71,0,0,0,.62-.11,1.35,1.35,0,0,0,.47-.3,1.19,1.19,0,0,0,.3-.45,1.48,1.48,0,0,0,.1-.57,1.54,1.54,0,0,0-.1-.58,1.17,1.17,0,0,0-.29-.45,1.33,1.33,0,0,0-.44-.28,1.7,1.7,0,0,0-.57-.1,1.61,1.61,0,0,0-.63.13,1.54,1.54,0,0,0-.47.31,1.4,1.4,0,0,0-.29.44A1.31,1.31,0,0,0,166,139.2Z" transform="translate(0.03 0.05)"/><path d="M172.58,138.63v2.28h-.4v-5.66h1.46a2.26,2.26,0,0,1,1.5.44,1.53,1.53,0,0,1,.5,1.24,1.73,1.73,0,0,1-.13.69,1.58,1.58,0,0,1-.4.53,2,2,0,0,1-.63.36,2.75,2.75,0,0,1-.84.12Zm0-.33h1.06a2,2,0,0,0,.67-.1,1.37,1.37,0,0,0,.5-.29,1.34,1.34,0,0,0,.32-.43,1.42,1.42,0,0,0,.11-.55,1.25,1.25,0,0,0-.41-1,1.71,1.71,0,0,0-1.19-.35h-1.06Z" transform="translate(0.03 0.05)"/><path d="M179,140.91a.13.13,0,0,1-.15-.11l-.05-.51a2.86,2.86,0,0,1-.33.29,1.79,1.79,0,0,1-.34.22,2,2,0,0,1-.37.13,2.14,2.14,0,0,1-.45,0,1.34,1.34,0,0,1-.4-.06,1,1,0,0,1-.34-.19.87.87,0,0,1-.24-.32,1,1,0,0,1-.09-.46.8.8,0,0,1,.15-.47,1.16,1.16,0,0,1,.45-.38,3,3,0,0,1,.78-.25,6.35,6.35,0,0,1,1.16-.11v-.42a1.39,1.39,0,0,0-.23-.85.86.86,0,0,0-.71-.3,1.4,1.4,0,0,0-.49.08,1.53,1.53,0,0,0-.34.18,1.72,1.72,0,0,0-.23.17.22.22,0,0,1-.15.08.13.13,0,0,1-.12-.07l-.07-.11a2.41,2.41,0,0,1,.66-.48,1.94,1.94,0,0,1,.78-.16,1.4,1.4,0,0,1,.56.11,1,1,0,0,1,.4.29,1.24,1.24,0,0,1,.23.46,1.9,1.9,0,0,1,.08.6v2.59Zm-1.6-.21a1.88,1.88,0,0,0,.43,0,1.42,1.42,0,0,0,.36-.14,2.11,2.11,0,0,0,.31-.21l.28-.27v-1a6.57,6.57,0,0,0-1,.09,3,3,0,0,0-.67.19.94.94,0,0,0-.39.28.6.6,0,0,0-.13.38.75.75,0,0,0,.07.35.61.61,0,0,0,.17.24.77.77,0,0,0,.25.14A1,1,0,0,0,177.35,140.7Z" transform="translate(0.03 0.05)"/><path d="M180.3,140.91v-4h.2a.13.13,0,0,1,.1,0,.19.19,0,0,1,0,.1l0,.84a1.88,1.88,0,0,1,.51-.76,1.19,1.19,0,0,1,.79-.28,1.66,1.66,0,0,1,.33,0,1.45,1.45,0,0,1,.29.11l-.05.27a.08.08,0,0,1-.08.06.11.11,0,0,1-.07,0l-.11,0-.16,0h-.22a1,1,0,0,0-.75.28,2,2,0,0,0-.47.8v2.59Z" transform="translate(0.03 0.05)"/><path d="M184.14,135.56a.28.28,0,0,1,0,.13.31.31,0,0,1-.08.11.28.28,0,0,1-.11.08.32.32,0,0,1-.14,0,.31.31,0,0,1-.13,0,.28.28,0,0,1-.11-.08.23.23,0,0,1-.08-.11.28.28,0,0,1,0-.13.35.35,0,0,1,0-.14.28.28,0,0,1,.08-.11l.11-.08a.31.31,0,0,1,.13,0,.32.32,0,0,1,.14,0l.11.08a.44.44,0,0,1,.08.11A.35.35,0,0,1,184.14,135.56Zm-.17,1.37v4h-.38v-4Z" transform="translate(0.03 0.05)"/><path d="M187.57,137.43a.09.09,0,0,1-.09,0,.19.19,0,0,1-.11,0l-.18-.11a1.49,1.49,0,0,0-.28-.11,1.58,1.58,0,0,0-.41-.05,1.18,1.18,0,0,0-.39.06,1,1,0,0,0-.31.17.72.72,0,0,0-.19.24.59.59,0,0,0-.07.29.52.52,0,0,0,.09.31,1,1,0,0,0,.25.21,1.94,1.94,0,0,0,.36.15l.4.13.41.14a1.33,1.33,0,0,1,.35.2.87.87,0,0,1,.26.28.86.86,0,0,1,.09.41,1.28,1.28,0,0,1-.09.48,1.19,1.19,0,0,1-.27.39,1.28,1.28,0,0,1-.44.26,1.89,1.89,0,0,1-1.32,0,1.93,1.93,0,0,1-.54-.35l.09-.13,0-.05.07,0a.19.19,0,0,1,.13.07l.2.13a1.4,1.4,0,0,0,.75.21,1.52,1.52,0,0,0,.45-.07,1.13,1.13,0,0,0,.32-.19.81.81,0,0,0,.19-.29.94.94,0,0,0,.07-.34.59.59,0,0,0-.1-.33.76.76,0,0,0-.25-.22,1.31,1.31,0,0,0-.36-.16l-.4-.13-.41-.14a1.55,1.55,0,0,1-.36-.19,1.12,1.12,0,0,1-.25-.28.87.87,0,0,1-.09-.42.93.93,0,0,1,.09-.4,1.09,1.09,0,0,1,.67-.58,1.63,1.63,0,0,1,.55-.09,1.85,1.85,0,0,1,.65.1,1.53,1.53,0,0,1,.52.33Z" transform="translate(0.03 0.05)"/><path class="cls-3" d="M93.16,147.93h.29a.12.12,0,0,1,.09,0,.12.12,0,0,1,0,.07l1,3.14a1.36,1.36,0,0,1,0,.17l0,.17s0-.11,0-.17a1.54,1.54,0,0,1,0-.17L95.84,148a.11.11,0,0,1,.11-.09h.16a.1.1,0,0,1,.11.09l1.06,3.17a2.25,2.25,0,0,1,.09.35.85.85,0,0,1,0-.17,1.21,1.21,0,0,1,0-.18l1-3.14a.14.14,0,0,1,.14-.1h.28l-1.33,4h-.28s-.07,0-.09-.08l-1.1-3.23,0-.12,0-.12,0,.12a.53.53,0,0,1,0,.12l-1.1,3.23a.11.11,0,0,1-.1.08h-.27Z" transform="translate(0.03 0.05)"/><path class="cls-3" d="M99.06,147.93h.29a.12.12,0,0,1,.09,0,.18.18,0,0,1,0,.07l1,3.14a1.54,1.54,0,0,1,.05.17l0,.17s0-.11,0-.17l.06-.17,1.07-3.17a.1.1,0,0,1,.11-.09H102a.12.12,0,0,1,.12.09l1,3.17c0,.12.07.23.1.35l0-.17a1.21,1.21,0,0,1,0-.18l1-3.14a.13.13,0,0,1,.14-.1h.28l-1.34,4h-.28s-.07,0-.09-.08L102,148.6a.56.56,0,0,0,0-.12.5.5,0,0,1,0-.12l0,.12,0,.12-1.11,3.23a.09.09,0,0,1-.09.08h-.27Z" transform="translate(0.03 0.05)"/><path class="cls-3" d="M105,147.93h.29a.17.17,0,0,1,.1,0,.1.1,0,0,1,0,.07l1,3.14a1.36,1.36,0,0,1,0,.17l0,.17s0-.11.05-.17a1.54,1.54,0,0,1,0-.17l1.07-3.17a.11.11,0,0,1,.11-.09h.16a.12.12,0,0,1,.12.09l1,3.17a2.25,2.25,0,0,1,.09.35c0-.06,0-.12,0-.17a1.21,1.21,0,0,1,0-.18l1-3.14a.12.12,0,0,1,.13-.1h.28l-1.33,4h-.28s-.07,0-.09-.08l-1.09-3.23a.56.56,0,0,1,0-.12l0-.12s0,.08,0,.12a.56.56,0,0,1,0,.12l-1.1,3.23a.11.11,0,0,1-.1.08h-.27Z" transform="translate(0.03 0.05)"/><path class="cls-3" d="M111,151.6a.35.35,0,0,1,0-.14.42.42,0,0,1,.08-.12l.11-.08.15,0a.32.32,0,0,1,.14,0,.36.36,0,0,1,.12.08.83.83,0,0,1,.08.12.35.35,0,0,1,0,.14.33.33,0,0,1,0,.15l-.08.12a.24.24,0,0,1-.12.07.32.32,0,0,1-.14,0,.35.35,0,0,1-.26-.1A.37.37,0,0,1,111,151.6Z" transform="translate(0.03 0.05)"/><path class="cls-3" d="M115,148.43a.09.09,0,0,1-.09,0,.17.17,0,0,1-.11,0l-.19-.11a1.26,1.26,0,0,0-.28-.11,1.5,1.5,0,0,0-.4-.05,1.25,1.25,0,0,0-.4.06,1,1,0,0,0-.3.17.91.91,0,0,0-.2.24.73.73,0,0,0-.07.29.52.52,0,0,0,.1.31.87.87,0,0,0,.25.21,1.69,1.69,0,0,0,.36.15l.4.13.41.14a1.33,1.33,0,0,1,.35.2.75.75,0,0,1,.25.28.76.76,0,0,1,.1.41,1.28,1.28,0,0,1-.09.48,1.21,1.21,0,0,1-.28.39,1.15,1.15,0,0,1-.43.26,1.84,1.84,0,0,1-.6.1,1.74,1.74,0,0,1-.72-.14,1.93,1.93,0,0,1-.54-.35l.09-.13,0-.05.07,0a.19.19,0,0,1,.13.07l.2.13a1.43,1.43,0,0,0,1.19.14.91.91,0,0,0,.32-.19.84.84,0,0,0,.2-.29.93.93,0,0,0,.06-.34.58.58,0,0,0-.09-.33.88.88,0,0,0-.25-.22,1.46,1.46,0,0,0-.36-.16l-.41-.13-.4-.14a1.37,1.37,0,0,1-.36-.19,1,1,0,0,1-.25-.28.87.87,0,0,1-.1-.42,1,1,0,0,1,.1-.4,1.09,1.09,0,0,1,.67-.58,1.59,1.59,0,0,1,.55-.09,1.89,1.89,0,0,1,.65.1,1.49,1.49,0,0,1,.51.33Z" transform="translate(0.03 0.05)"/><path class="cls-3" d="M118.77,151.91a.13.13,0,0,1-.15-.11l-.06-.51a2.15,2.15,0,0,1-.32.29,1.79,1.79,0,0,1-.34.22,2.12,2.12,0,0,1-.38.13,2.06,2.06,0,0,1-.45,0,1.27,1.27,0,0,1-.39-.06.94.94,0,0,1-.34-.19.87.87,0,0,1-.24-.32A1,1,0,0,1,116,151a.86.86,0,0,1,.14-.47,1.33,1.33,0,0,1,.45-.38,3.2,3.2,0,0,1,.79-.25,6.26,6.26,0,0,1,1.16-.11v-.42a1.32,1.32,0,0,0-.24-.85.85.85,0,0,0-.71-.3,1.44,1.44,0,0,0-.49.08,2.16,2.16,0,0,0-.34.18l-.23.17a.19.19,0,0,1-.14.08.11.11,0,0,1-.12-.07l-.07-.11a2.37,2.37,0,0,1,.65-.48,1.94,1.94,0,0,1,.78-.16,1.36,1.36,0,0,1,.56.11.9.9,0,0,1,.4.29,1.12,1.12,0,0,1,.24.46,2.23,2.23,0,0,1,.08.6v2.59Zm-1.6-.21a1.86,1.86,0,0,0,.42,0,1.7,1.7,0,0,0,.67-.35l.29-.27v-1a6.44,6.44,0,0,0-1,.09,3.12,3.12,0,0,0-.68.19,1.09,1.09,0,0,0-.39.28.66.66,0,0,0-.12.38.91.91,0,0,0,.06.35.63.63,0,0,0,.18.24.68.68,0,0,0,.25.14A1,1,0,0,0,117.17,151.7Z" transform="translate(0.03 0.05)"/><path class="cls-3" d="M121.43,147.86a1.73,1.73,0,0,1,.48.07,1.22,1.22,0,0,1,.4.18h1v.13c0,.07,0,.1-.11.11l-.6,0a1.35,1.35,0,0,1,.17.34,1.4,1.4,0,0,1,.06.41,1.24,1.24,0,0,1-.11.52,1.06,1.06,0,0,1-.29.4,1.28,1.28,0,0,1-.44.26,1.81,1.81,0,0,1-.58.09,1.75,1.75,0,0,1-.62-.1.87.87,0,0,0-.27.23.43.43,0,0,0-.09.25.32.32,0,0,0,.12.27.79.79,0,0,0,.32.13,2,2,0,0,0,.45.05l.51,0,.52,0a1.48,1.48,0,0,1,.45.13.8.8,0,0,1,.32.25.71.71,0,0,1,.12.43,1,1,0,0,1-.12.47,1.4,1.4,0,0,1-.36.41,1.9,1.9,0,0,1-.57.28,2.45,2.45,0,0,1-.74.11,2.73,2.73,0,0,1-.74-.09,1.73,1.73,0,0,1-.53-.23,1,1,0,0,1-.32-.34.84.84,0,0,1-.11-.41.76.76,0,0,1,.21-.54,1.35,1.35,0,0,1,.57-.35.8.8,0,0,1-.32-.2.53.53,0,0,1-.11-.36.55.55,0,0,1,0-.17.76.76,0,0,1,.09-.18,1.29,1.29,0,0,1,.16-.17,1.13,1.13,0,0,1,.21-.15,1.14,1.14,0,0,1-.44-.43,1.38,1.38,0,0,1-.06-1.16,1.06,1.06,0,0,1,.29-.4,1.11,1.11,0,0,1,.45-.26A1.54,1.54,0,0,1,121.43,147.86Zm1.48,4.32a.4.4,0,0,0-.1-.3.55.55,0,0,0-.26-.18,1.93,1.93,0,0,0-.38-.09l-.45,0-.47,0-.44-.05a2.44,2.44,0,0,0-.28.14,1,1,0,0,0-.22.17,1.07,1.07,0,0,0-.15.22.71.71,0,0,0,0,.26.59.59,0,0,0,.09.32.75.75,0,0,0,.27.26,1.16,1.16,0,0,0,.42.18,2.52,2.52,0,0,0,.58.06A2.12,2.12,0,0,0,122,153a1.42,1.42,0,0,0,.45-.19,1.08,1.08,0,0,0,.31-.29A.73.73,0,0,0,122.91,152.18Zm-1.48-2a1.35,1.35,0,0,0,.46-.07.93.93,0,0,0,.33-.21.81.81,0,0,0,.21-.31,1.1,1.1,0,0,0,.07-.41,1.07,1.07,0,0,0-.07-.41.89.89,0,0,0-.21-.32.83.83,0,0,0-.34-.2,1.31,1.31,0,0,0-.9,0,.83.83,0,0,0-.34.2.89.89,0,0,0-.21.32,1.07,1.07,0,0,0-.07.41,1.1,1.1,0,0,0,.07.41,1,1,0,0,0,.21.31,1,1,0,0,0,.34.21A1.25,1.25,0,0,0,121.43,150.15Z" transform="translate(0.03 0.05)"/><path class="cls-3" d="M124.82,146.56a.28.28,0,0,1,0,.13.31.31,0,0,1-.08.11.28.28,0,0,1-.11.08.34.34,0,0,1-.28,0,.28.28,0,0,1-.11-.08.21.21,0,0,1-.07-.11.28.28,0,0,1,0-.13.35.35,0,0,1,0-.14.26.26,0,0,1,.07-.11l.11-.08a.34.34,0,0,1,.28,0l.11.08a.44.44,0,0,1,.08.11A.35.35,0,0,1,124.82,146.56Zm-.17,1.37v4h-.38v-4Z" transform="translate(0.03 0.05)"/><path class="cls-3" d="M128.25,148.43a.09.09,0,0,1-.09,0,.15.15,0,0,1-.11,0l-.19-.11a1.26,1.26,0,0,0-.28-.11,1.5,1.5,0,0,0-.4-.05,1.25,1.25,0,0,0-.4.06.87.87,0,0,0-.3.17.76.76,0,0,0-.2.24.73.73,0,0,0-.07.29.46.46,0,0,0,.1.31.87.87,0,0,0,.25.21,1.6,1.6,0,0,0,.35.15l.41.13.41.14a1.33,1.33,0,0,1,.35.2.84.84,0,0,1,.25.28.76.76,0,0,1,.1.41,1.12,1.12,0,0,1-.1.48,1.05,1.05,0,0,1-.27.39,1.2,1.2,0,0,1-.44.26,1.78,1.78,0,0,1-.59.1,1.74,1.74,0,0,1-.72-.14,2,2,0,0,1-.55-.35l.1-.13a.1.1,0,0,1,0-.05l.07,0a.21.21,0,0,1,.13.07l.19.13a1.8,1.8,0,0,0,.31.14,1.42,1.42,0,0,0,.45.07,1.45,1.45,0,0,0,.44-.07.91.91,0,0,0,.32-.19.84.84,0,0,0,.2-.29.93.93,0,0,0,.06-.34.58.58,0,0,0-.09-.33.8.8,0,0,0-.26-.22,1.25,1.25,0,0,0-.35-.16L127,150l-.41-.14a1.31,1.31,0,0,1-.35-.19,1,1,0,0,1-.25-.28.77.77,0,0,1-.1-.42.93.93,0,0,1,.09-.4,1.14,1.14,0,0,1,.27-.35,1.09,1.09,0,0,1,.41-.23,1.59,1.59,0,0,1,.55-.09,1.79,1.79,0,0,1,.64.1,1.53,1.53,0,0,1,.52.33Z" transform="translate(0.03 0.05)"/><path class="cls-3" d="M129.25,149.38h1.86v.32h-1.86Z" transform="translate(0.03 0.05)"/><path class="cls-3" d="M134.7,151.91a.13.13,0,0,1-.15-.11l-.06-.51a4,4,0,0,1-.32.29,1.79,1.79,0,0,1-.34.22,2.43,2.43,0,0,1-.38.13,2.14,2.14,0,0,1-.45,0,1.34,1.34,0,0,1-.4-.06,1.14,1.14,0,0,1-.34-.19,1,1,0,0,1-.23-.32,1,1,0,0,1-.09-.46.79.79,0,0,1,.14-.47,1.33,1.33,0,0,1,.45-.38,3.07,3.07,0,0,1,.79-.25,6.26,6.26,0,0,1,1.16-.11v-.42a1.32,1.32,0,0,0-.24-.85.86.86,0,0,0-.71-.3,1.44,1.44,0,0,0-.49.08,1.79,1.79,0,0,0-.34.18l-.23.17a.22.22,0,0,1-.15.08.13.13,0,0,1-.12-.07l-.06-.11a2.23,2.23,0,0,1,.65-.48,1.94,1.94,0,0,1,.78-.16,1.36,1.36,0,0,1,.56.11,1,1,0,0,1,.4.29,1.43,1.43,0,0,1,.24.46,2.23,2.23,0,0,1,.08.6v2.59Zm-1.6-.21a1.86,1.86,0,0,0,.42,0,1.42,1.42,0,0,0,.36-.14,1.69,1.69,0,0,0,.31-.21l.29-.27v-1a6.44,6.44,0,0,0-1,.09,3,3,0,0,0-.68.19.94.94,0,0,0-.39.28.67.67,0,0,0-.13.38.91.91,0,0,0,.07.35.61.61,0,0,0,.17.24.82.82,0,0,0,.26.14A1,1,0,0,0,133.1,151.7Z" transform="translate(0.03 0.05)"/><path class="cls-3" d="M136.05,151.91v-4h.21c.07,0,.1,0,.12.1l0,.58a2.48,2.48,0,0,1,.25-.3,2.09,2.09,0,0,1,.28-.24,1.87,1.87,0,0,1,.32-.15,1.42,1.42,0,0,1,.36,0,1,1,0,0,1,.7.25,1.36,1.36,0,0,1,.35.71,1.14,1.14,0,0,1,.2-.43,1.22,1.22,0,0,1,.3-.3,1.19,1.19,0,0,1,.36-.17,1.4,1.4,0,0,1,.41-.06,1.32,1.32,0,0,1,.53.1,1,1,0,0,1,.4.29,1.24,1.24,0,0,1,.25.47,2.11,2.11,0,0,1,.09.64v2.54h-.38v-2.54a1.35,1.35,0,0,0-.25-.89.87.87,0,0,0-.72-.31,1.1,1.1,0,0,0-.4.08.83.83,0,0,0-.33.22,1.12,1.12,0,0,0-.24.38,1.62,1.62,0,0,0-.08.52v2.54h-.38v-2.54a1.5,1.5,0,0,0-.23-.89.79.79,0,0,0-.68-.31,1,1,0,0,0-.6.2,1.8,1.8,0,0,0-.49.53v3Z" transform="translate(0.03 0.05)"/><path class="cls-3" d="M142.18,151.6a.35.35,0,0,1,0-.14.83.83,0,0,1,.08-.12.36.36,0,0,1,.12-.08.32.32,0,0,1,.14,0l.15,0,.11.08a.42.42,0,0,1,.08.12.35.35,0,0,1,0,.14.33.33,0,0,1,0,.15.42.42,0,0,1-.08.12.26.26,0,0,1-.11.07.4.4,0,0,1-.15,0,.35.35,0,0,1-.26-.1A.37.37,0,0,1,142.18,151.6Z" transform="translate(0.03 0.05)"/><path class="cls-3" d="M146.61,148.46l0,0h0l-.11,0a.93.93,0,0,0-.18-.12l-.29-.12a1.73,1.73,0,0,0-.42-.05,1.44,1.44,0,0,0-.61.12,1.19,1.19,0,0,0-.45.35,1.59,1.59,0,0,0-.28.55,2.74,2.74,0,0,0-.1.73,2.7,2.7,0,0,0,.1.74,1.67,1.67,0,0,0,.28.55,1.14,1.14,0,0,0,.44.34,1.3,1.3,0,0,0,.56.11,1.68,1.68,0,0,0,.49-.06,2.44,2.44,0,0,0,.32-.15,2.07,2.07,0,0,0,.2-.15.2.2,0,0,1,.11-.07.09.09,0,0,1,.08,0l.11.13a1.21,1.21,0,0,1-.23.22,1.65,1.65,0,0,1-.32.18,2.4,2.4,0,0,1-.38.12,2,2,0,0,1-.43,0,1.75,1.75,0,0,1-.7-.13,1.65,1.65,0,0,1-.54-.4,2,2,0,0,1-.35-.65,2.84,2.84,0,0,1-.12-.86,2.73,2.73,0,0,1,.12-.83,1.77,1.77,0,0,1,.35-.65,1.56,1.56,0,0,1,.56-.42,1.86,1.86,0,0,1,.77-.15,1.92,1.92,0,0,1,.69.12,1.87,1.87,0,0,1,.52.34Z" transform="translate(0.03 0.05)"/><path class="cls-3" d="M149.15,147.87a2,2,0,0,1,.76.14,1.51,1.51,0,0,1,.57.42,1.75,1.75,0,0,1,.36.64,2.86,2.86,0,0,1,.12.85,2.75,2.75,0,0,1-.12.84,1.79,1.79,0,0,1-.36.65,1.49,1.49,0,0,1-.57.41,1.84,1.84,0,0,1-.76.14,1.89,1.89,0,0,1-.77-.14,1.66,1.66,0,0,1-.57-.41,2,2,0,0,1-.36-.65,2.75,2.75,0,0,1-.12-.84,2.86,2.86,0,0,1,.12-.85,1.9,1.9,0,0,1,.36-.64,1.69,1.69,0,0,1,.57-.42A2.07,2.07,0,0,1,149.15,147.87Zm0,3.79a1.52,1.52,0,0,0,.62-.12,1.16,1.16,0,0,0,.44-.35,1.49,1.49,0,0,0,.27-.55,2.63,2.63,0,0,0,.09-.72,2.73,2.73,0,0,0-.09-.72,1.49,1.49,0,0,0-.27-.55,1.19,1.19,0,0,0-.44-.36,1.52,1.52,0,0,0-.62-.12,1.46,1.46,0,0,0-.62.12,1.22,1.22,0,0,0-.45.36,1.49,1.49,0,0,0-.27.55,2.73,2.73,0,0,0-.09.72,2.63,2.63,0,0,0,.09.72,1.49,1.49,0,0,0,.27.55,1.19,1.19,0,0,0,.45.35A1.46,1.46,0,0,0,149.15,151.66Z" transform="translate(0.03 0.05)"/><path class="cls-3" d="M152,151.91v-4h.21a.11.11,0,0,1,.12.1l0,.58a2.48,2.48,0,0,1,.25-.3,2.09,2.09,0,0,1,.28-.24,1.87,1.87,0,0,1,.32-.15,1.49,1.49,0,0,1,.36,0,1,1,0,0,1,.7.25,1.36,1.36,0,0,1,.35.71,1.32,1.32,0,0,1,.2-.43,1.42,1.42,0,0,1,.3-.3,1.19,1.19,0,0,1,.36-.17,1.45,1.45,0,0,1,.41-.06,1.29,1.29,0,0,1,.53.1,1,1,0,0,1,.4.29,1.25,1.25,0,0,1,.26.47,2.49,2.49,0,0,1,.08.64v2.54h-.38v-2.54a1.35,1.35,0,0,0-.25-.89.87.87,0,0,0-.72-.31,1.1,1.1,0,0,0-.4.08.91.91,0,0,0-.33.22,1,1,0,0,0-.23.38,1.38,1.38,0,0,0-.09.52v2.54h-.38v-2.54a1.5,1.5,0,0,0-.23-.89.79.79,0,0,0-.68-.31,1.05,1.05,0,0,0-.6.2,1.8,1.8,0,0,0-.49.53v3Z" transform="translate(0.03 0.05)"/><g class="cls-4"><polygon class="cls-5" points="95.96 63.32 95.96 64.06 96.89 64.06 96.89 64.42 95.96 64.42 95.96 65.44 95.49 65.44 95.49 62.95 97.06 62.95 97.06 63.32 95.96 63.32"/><g class="cls-4"><path class="cls-5" d="M99.34,65.38H99a.15.15,0,0,1-.1,0,.2.2,0,0,1-.06-.07l-.18-.51h-1l-.19.51a.18.18,0,0,1,0,.07.17.17,0,0,1-.1,0h-.36l1-2.49h.47Zm-.82-.94-.31-.82s0-.08,0-.13l0-.17a1.09,1.09,0,0,1-.05.17s0,.09,0,.13l-.3.82Z" transform="translate(0.03 0.05)"/><path class="cls-5" d="M102.29,62.89v2.49h-.4v-1.6a1.48,1.48,0,0,1,0-.21L101.14,65a.16.16,0,0,1-.16.1h-.07a.17.17,0,0,1-.16-.1L100,63.56s0,.08,0,.11v1.71h-.41V62.89H100l0,0,0,0,.74,1.38.06.11a1.12,1.12,0,0,0,0,.13.5.5,0,0,1,0-.13.37.37,0,0,1,0-.11l.74-1.38,0,0,0,0h.44Z" transform="translate(0.03 0.05)"/><rect class="cls-5" x="102.88" y="62.95" width="0.46" height="2.49"/><polygon class="cls-5" points="105.36 65.06 105.36 65.44 103.9 65.44 103.9 62.95 104.36 62.95 104.36 65.06 105.36 65.06"/><path class="cls-5" d="M106.4,64.42v1h-.46v-1L105,62.89h.41a.12.12,0,0,1,.09,0,.16.16,0,0,1,.06.08l.46.83.07.14a.69.69,0,0,1,0,.13s0-.09,0-.13l.07-.14.45-.83.06-.07a.18.18,0,0,1,.1,0h.41Z" transform="translate(0.03 0.05)"/><path class="cls-5" d="M110.63,64.14a1.44,1.44,0,0,1-.09.51,1.18,1.18,0,0,1-.25.4,1.41,1.41,0,0,1-.4.27,1.46,1.46,0,0,1-.52.09,1.36,1.36,0,0,1-.51-.09,1.28,1.28,0,0,1-.4-.27,1.2,1.2,0,0,1-.26-.4,1.49,1.49,0,0,1,0-1,1.2,1.2,0,0,1,.26-.4,1.13,1.13,0,0,1,.4-.27,1.55,1.55,0,0,1,.87-.05,1.34,1.34,0,0,1,.3.12,1.28,1.28,0,0,1,.26.2,1.2,1.2,0,0,1,.18.26,1,1,0,0,1,.12.3,1.34,1.34,0,0,1,0,.35m-.47,0a1.06,1.06,0,0,0-.06-.37.7.7,0,0,0-.15-.27.64.64,0,0,0-.25-.18.94.94,0,0,0-.66,0,.61.61,0,0,0-.24.18.72.72,0,0,0-.16.27,1.17,1.17,0,0,0,0,.74.72.72,0,0,0,.16.27A.61.61,0,0,0,109,65a.94.94,0,0,0,.66,0,.64.64,0,0,0,.25-.18.7.7,0,0,0,.15-.27,1.06,1.06,0,0,0,.06-.37" transform="translate(0.03 0.05)"/><polygon class="cls-5" points="111.54 63.32 111.54 64.06 112.47 64.06 112.47 64.42 111.54 64.42 111.54 65.44 111.07 65.44 111.07 62.95 112.64 62.95 112.64 63.32 111.54 63.32"/><polygon class="cls-5" points="113.49 63.32 113.49 64.06 114.42 64.06 114.42 64.42 113.49 64.42 113.49 65.44 113.02 65.44 113.02 62.95 114.59 62.95 114.59 63.32 113.49 63.32"/><rect class="cls-5" x="114.97" y="62.95" width="0.46" height="2.49"/><path class="cls-5" d="M117.67,64.8a.11.11,0,0,1,.07,0l.18.19a.94.94,0,0,1-.37.29,1.44,1.44,0,0,1-1,0,1.05,1.05,0,0,1-.38-.27,1,1,0,0,1-.24-.4,1.44,1.44,0,0,1-.09-.51,1.36,1.36,0,0,1,.09-.51,1.25,1.25,0,0,1,.26-.41,1,1,0,0,1,.38-.26,1.35,1.35,0,0,1,.5-.09,1.22,1.22,0,0,1,.49.09,1.11,1.11,0,0,1,.36.23l-.16.22,0,0-.06,0-.06,0-.06,0-.07,0-.1,0-.13,0-.18,0a.73.73,0,0,0-.3.06.61.61,0,0,0-.24.17.85.85,0,0,0-.16.28,1.38,1.38,0,0,0,0,.37,1.06,1.06,0,0,0,.06.37.85.85,0,0,0,.16.28.81.81,0,0,0,.24.17A.72.72,0,0,0,117,65h.18l.14,0,.12-.06a.31.31,0,0,0,.11-.09l0,0h0" transform="translate(0.03 0.05)"/><polygon class="cls-5" points="118.73 63.32 118.73 64.01 119.61 64.01 119.61 64.36 118.73 64.36 118.73 65.07 119.84 65.07 119.84 65.44 118.27 65.44 118.27 62.95 119.84 62.95 119.84 63.32 118.73 63.32"/><path class="cls-5" d="M123.26,65.38h-.53a.23.23,0,0,1-.08-.07l-.17-.17a1.22,1.22,0,0,1-.81.28.69.69,0,0,1-.28,0,.89.89,0,0,1-.25-.14A.72.72,0,0,1,121,65a.6.6,0,0,1-.07-.3.54.54,0,0,1,0-.22,1.24,1.24,0,0,1,.1-.2.87.87,0,0,1,.17-.16,1,1,0,0,1,.2-.12,1.28,1.28,0,0,1-.14-.25,1.09,1.09,0,0,1,0-.25.64.64,0,0,1,0-.24.6.6,0,0,1,.14-.21.67.67,0,0,1,.22-.13.65.65,0,0,1,.29-.05.77.77,0,0,1,.27,0,.74.74,0,0,1,.21.13.52.52,0,0,1,.13.17.42.42,0,0,1,.06.21l-.27.06a.09.09,0,0,1-.11-.07.2.2,0,0,0,0-.08l-.06-.07-.08,0-.11,0a.31.31,0,0,0-.13,0,.18.18,0,0,0-.09.06.21.21,0,0,0-.06.1.5.5,0,0,0,0,.12.34.34,0,0,0,0,.1l0,.1.07.09a.44.44,0,0,0,.09.11l.66.69a.92.92,0,0,0,.09-.23,1,1,0,0,0,0-.24.09.09,0,0,1,0-.07l.06,0H123a1.49,1.49,0,0,1-.06.43,1.21,1.21,0,0,1-.18.38Zm-1.66-1.16a.63.63,0,0,0-.2.2.53.53,0,0,0-.06.24.52.52,0,0,0,0,.18.27.27,0,0,0,.09.12.22.22,0,0,0,.13.08.41.41,0,0,0,.16,0,.77.77,0,0,0,.27,0,.88.88,0,0,0,.23-.14Z" transform="translate(0.03 0.05)"/><path class="cls-5" d="M126.43,64.14v1a1.28,1.28,0,0,1-.4.21,1.7,1.7,0,0,1-.46.06,1.59,1.59,0,0,1-.55-.09,1.22,1.22,0,0,1-.42-.27,1,1,0,0,1-.27-.4,1.44,1.44,0,0,1,0-1,1.38,1.38,0,0,1,.26-.4A1.25,1.25,0,0,1,125,63a1.53,1.53,0,0,1,.54-.09l.28,0,.25.07.2.1a1.09,1.09,0,0,1,.17.13l-.13.21a.09.09,0,0,1-.08.06.15.15,0,0,1-.11,0,.41.41,0,0,1-.11-.07l-.13,0-.16,0-.2,0a.88.88,0,0,0-.33.06.64.64,0,0,0-.25.18.88.88,0,0,0-.17.28,1.36,1.36,0,0,0-.05.36,1.12,1.12,0,0,0,.06.38.78.78,0,0,0,.17.28.64.64,0,0,0,.27.18,1,1,0,0,0,.35.06.88.88,0,0,0,.24,0,.83.83,0,0,0,.22-.08v-.45h-.32a.08.08,0,0,1-.07,0,.14.14,0,0,1,0-.06v-.26Z" transform="translate(0.03 0.05)"/><polygon class="cls-5" points="127.38 63.32 127.38 64.01 128.25 64.01 128.25 64.36 127.38 64.36 127.38 65.07 128.49 65.07 128.49 65.44 126.92 65.44 126.92 62.95 128.49 62.95 128.49 63.32 127.38 63.32"/><path class="cls-5" d="M130.19,63.35s0,0-.05,0l0,0a.13.13,0,0,1-.08,0l-.1-.06-.14-.06a.5.5,0,0,0-.19,0,.38.38,0,0,0-.16,0,.31.31,0,0,0-.13.06.36.36,0,0,0-.07.1.51.51,0,0,0,0,.13.17.17,0,0,0,.05.14.27.27,0,0,0,.13.1.75.75,0,0,0,.18.08l.21.07L130,64l.19.13a.59.59,0,0,1,.13.18.67.67,0,0,1,0,.26.83.83,0,0,1-.06.32.74.74,0,0,1-.44.43,1.06,1.06,0,0,1-.37.06l-.23,0-.22-.07a1.24,1.24,0,0,1-.2-.1l-.17-.14.14-.22,0,0h.06l.1,0,.11.08.17.08a.69.69,0,0,0,.22,0,.45.45,0,0,0,.3-.09.31.31,0,0,0,.11-.27.21.21,0,0,0,0-.16.27.27,0,0,0-.13-.1.75.75,0,0,0-.18-.08l-.21-.06-.21-.08a.8.8,0,0,1-.19-.13.7.7,0,0,1-.13-.19.81.81,0,0,1,0-.29.58.58,0,0,1,0-.26.63.63,0,0,1,.16-.23.72.72,0,0,1,.25-.16,1,1,0,0,1,.35-.06,1.1,1.1,0,0,1,.41.07.81.81,0,0,1,.31.19Z" transform="translate(0.03 0.05)"/><polygon class="cls-5" points="132.52 63.33 131.77 63.33 131.77 65.44 131.31 65.44 131.31 63.33 130.56 63.33 130.56 62.95 132.52 62.95 132.52 63.33"/><rect class="cls-5" x="132.85" y="62.95" width="0.46" height="2.49"/><path class="cls-5" d="M136.21,64.14a1.44,1.44,0,0,1-.09.51,1.18,1.18,0,0,1-.25.4,1.41,1.41,0,0,1-.4.27,1.46,1.46,0,0,1-.52.09,1.36,1.36,0,0,1-.51-.09,1.28,1.28,0,0,1-.4-.27,1.2,1.2,0,0,1-.26-.4,1.49,1.49,0,0,1,0-1,1.2,1.2,0,0,1,.26-.4,1.13,1.13,0,0,1,.4-.27,1.55,1.55,0,0,1,.87-.05,1.34,1.34,0,0,1,.3.12,1.28,1.28,0,0,1,.26.2,1.2,1.2,0,0,1,.18.26,1,1,0,0,1,.12.3,1.34,1.34,0,0,1,0,.35m-.47,0a1.06,1.06,0,0,0-.06-.37.7.7,0,0,0-.15-.27.64.64,0,0,0-.25-.18.94.94,0,0,0-.66,0,.79.79,0,0,0-.4.45,1.17,1.17,0,0,0,0,.74.79.79,0,0,0,.4.45.94.94,0,0,0,.66,0,.64.64,0,0,0,.25-.18.7.7,0,0,0,.15-.27,1.06,1.06,0,0,0,.06-.37" transform="translate(0.03 0.05)"/><path class="cls-5" d="M138.72,62.89v2.49h-.33l-.07-.06L137,63.65c0,.07,0,.14,0,.21v1.52h-.41V62.89H137l0,0,0,0,1.3,1.67a.49.49,0,0,0,0-.12V62.89Z" transform="translate(0.03 0.05)"/><path class="cls-5" d="M142.32,64.14a1.35,1.35,0,0,1-.09.5,1.2,1.2,0,0,1-.26.4,1.14,1.14,0,0,1-.39.25,1.46,1.46,0,0,1-.52.09h-.95V62.89h.95a1.46,1.46,0,0,1,.52.1,1.14,1.14,0,0,1,.39.25,1.11,1.11,0,0,1,.26.4,1.35,1.35,0,0,1,.09.5m-.47,0a1.06,1.06,0,0,0-.06-.37.72.72,0,0,0-.16-.27.61.61,0,0,0-.24-.18.88.88,0,0,0-.33-.06h-.49V65h.49a.88.88,0,0,0,.33-.06.61.61,0,0,0,.24-.18.72.72,0,0,0,.16-.27,1.06,1.06,0,0,0,.06-.37" transform="translate(0.03 0.05)"/><path class="cls-5" d="M143,62.73a.75.75,0,0,1,.11.28,1,1,0,0,1,0,.29.94.94,0,0,1-.1.28.76.76,0,0,1-.21.23l-.13-.08,0,0v-.06l0,0a.63.63,0,0,0,.07-.12.38.38,0,0,0,0-.16.54.54,0,0,0,0-.18.5.5,0,0,0-.08-.2.1.1,0,0,1,0-.09.08.08,0,0,1,.05-.05Z" transform="translate(0.03 0.05)"/><path class="cls-5" d="M145.39,65.38H145a.12.12,0,0,1-.09,0,.13.13,0,0,1-.06-.07l-.19-.51h-1l-.18.51a.13.13,0,0,1-.06.07.15.15,0,0,1-.1,0H143l1-2.49h.47Zm-.82-.94-.3-.82a1.12,1.12,0,0,0-.05-.13c0-.06,0-.11,0-.17l-.05.17s0,.09,0,.13l-.3.82Z" transform="translate(0.03 0.05)"/><path class="cls-5" d="M147.29,64.8a.09.09,0,0,1,.06,0l.19.19a1,1,0,0,1-.38.29,1.19,1.19,0,0,1-.53.1,1.35,1.35,0,0,1-.5-.09,1.11,1.11,0,0,1-.37-.27,1,1,0,0,1-.24-.4,1.44,1.44,0,0,1-.09-.51,1.36,1.36,0,0,1,.09-.51,1.41,1.41,0,0,1,.25-.41,1.16,1.16,0,0,1,.39-.26,1.35,1.35,0,0,1,.5-.09,1.21,1.21,0,0,1,.48.09,1.11,1.11,0,0,1,.36.23l-.15.22,0,0-.06,0-.05,0-.06,0-.08,0-.1,0-.13,0-.17,0a.81.81,0,0,0-.31.06.66.66,0,0,0-.23.17.85.85,0,0,0-.16.28,1.07,1.07,0,0,0-.05.37,1.38,1.38,0,0,0,.05.37.88.88,0,0,0,.17.28.61.61,0,0,0,.24.17.72.72,0,0,0,.29.06h.17l.14,0,.13-.06.11-.09a.05.05,0,0,1,0,0h0" transform="translate(0.03 0.05)"/><polygon class="cls-5" points="149.63 63.33 148.88 63.33 148.88 65.44 148.41 65.44 148.41 63.33 147.66 63.33 147.66 62.95 149.63 62.95 149.63 63.33"/><rect class="cls-5" x="149.95" y="62.95" width="0.46" height="2.49"/><polygon class="cls-5" points="151.44 63.32 151.44 64.06 152.37 64.06 152.37 64.42 151.44 64.42 151.44 65.44 150.97 65.44 150.97 62.95 152.54 62.95 152.54 63.32 151.44 63.32"/><path class="cls-5" d="M154.19,63.35s0,0-.05,0l0,0a.13.13,0,0,1-.08,0l-.1-.06-.14-.06a.48.48,0,0,0-.18,0,.43.43,0,0,0-.17,0,.23.23,0,0,0-.12.06.25.25,0,0,0-.08.1.51.51,0,0,0,0,.13.17.17,0,0,0,.05.14.27.27,0,0,0,.13.1.75.75,0,0,0,.18.08l.21.07L154,64a1.18,1.18,0,0,1,.18.13.59.59,0,0,1,.13.18.67.67,0,0,1,0,.26.83.83,0,0,1-.06.32.74.74,0,0,1-.44.43,1.06,1.06,0,0,1-.37.06l-.23,0-.22-.07a1.24,1.24,0,0,1-.2-.1l-.17-.14.14-.22,0,0h.05l.1,0,.12.08a1.19,1.19,0,0,0,.16.08.69.69,0,0,0,.22,0,.45.45,0,0,0,.3-.09.31.31,0,0,0,.11-.27.21.21,0,0,0,0-.16.27.27,0,0,0-.13-.1.75.75,0,0,0-.18-.08l-.21-.06-.21-.08a.59.59,0,0,1-.18-.13.43.43,0,0,1-.13-.19.63.63,0,0,1,0-.29.58.58,0,0,1,0-.26.63.63,0,0,1,.16-.23.72.72,0,0,1,.25-.16,1,1,0,0,1,.35-.06,1.1,1.1,0,0,1,.41.07.81.81,0,0,1,.31.19Z" transform="translate(0.03 0.05)"/><path class="cls-6" d="M95.46,59.63V57.08a10.34,10.34,0,0,0,4.42,1c1.52,0,2.64-.45,2.64-1.32,0-.67-.54-1.08-2-1.34l-1.09-.21c-2.85-.51-4-1.93-4-3.71,0-2.57,2.36-3.8,5.44-3.8a11.8,11.8,0,0,1,4,.68v2.52a10.34,10.34,0,0,0-3.78-.7c-1.26,0-2.62.27-2.62,1.17,0,.58.42,1,2.23,1.32l1.09.22c2.69.55,3.8,1.78,3.8,3.58,0,2.65-2.35,4.09-5.4,4.09a12,12,0,0,1-4.78-1" transform="translate(0.03 0.05)"/><path class="cls-6" d="M134.66,54v5.71a14.4,14.4,0,0,1-4.72.87c-4.4,0-7.25-2.63-7.25-6.47s2.8-6.41,7.38-6.41a12.21,12.21,0,0,1,3.62.56v2.6a9,9,0,0,0-3-.52c-3.16,0-4.88,1.62-4.88,3.93,0,2.08,1.62,3.78,4.25,3.76a6.41,6.41,0,0,0,1.93-.33V54Z" transform="translate(0.03 0.05)"/><rect class="cls-6" x="138.27" y="48.01" width="2.96" height="12.45"/><path class="cls-6" d="M144.78,59.63V57.08a10.34,10.34,0,0,0,4.42,1c1.52,0,2.64-.45,2.64-1.32,0-.67-.54-1.08-2-1.34l-1.08-.21c-2.85-.51-4-1.93-4-3.71,0-2.57,2.36-3.8,5.44-3.8a11.84,11.84,0,0,1,4.05.68v2.52a10.34,10.34,0,0,0-3.78-.7c-1.26,0-2.62.27-2.62,1.17,0,.58.42,1,2.23,1.32l1.09.22c2.69.55,3.79,1.78,3.79,3.58,0,2.65-2.35,4.09-5.4,4.09a11.9,11.9,0,0,1-4.77-1" transform="translate(0.03 0.05)"/><path class="cls-6" d="M121.43,60.41,116.23,48h-3.8l-5.2,12.45h3.07l1-2.48a18.14,18.14,0,0,0,5.94,0l1,2.45Zm-9.31-4.67,2.12-5.4,2.11,5.43a16.64,16.64,0,0,1-4.23,0" transform="translate(0.03 0.05)"/><path class="cls-6" d="M125.7,38.57h0v-23a1,1,0,0,0,.48-.84,1,1,0,0,0-2,0,1,1,0,0,0,.48.84v23a1,1,0,1,0,1,0" transform="translate(0.03 0.05)"/><path class="cls-6" d="M122.47,18.13a9.37,9.37,0,0,0,0,17.92,8.44,8.44,0,0,0,1,.25V17.88a8.44,8.44,0,0,0-1,.25m0,16.85a8.46,8.46,0,0,1-4-2.87,8.34,8.34,0,0,1,0-10,8.39,8.39,0,0,1,4-2.87Z" transform="translate(0.03 0.05)"/><path class="cls-6" d="M127.91,18.13a8.76,8.76,0,0,0-1-.25V36.3a8.76,8.76,0,0,0,1-.25,9.36,9.36,0,0,0,0-17.92m0,16.85V19.2a8.34,8.34,0,0,1,0,15.78" transform="translate(0.03 0.05)"/></g></g><rect class="cls-1" y="0.18" width="249.63" height="166.95"/><rect class="cls-1" x="0.09" width="249.63" height="166.95"/></svg>